<?xml version="1.0" encoding="UTF-8" standalone="no"?>
<svg width="435.328mm" height="70.2028mm"
 viewBox="0 0 1234 199"
 xmlns="http://www.w3.org/2000/svg" xmlns:xlink="http://www.w3.org/1999/xlink"  version="1.2" baseProfile="tiny">
<title>Qt SVG Document</title>
<desc>MATLAB, The MathWorks, Inc. Version 25.1.0.2943329 R2025a</desc>
<defs>
</defs>
<g fill="none" stroke="black" stroke-width="1" fill-rule="evenodd" stroke-linecap="square" stroke-linejoin="bevel" >

<g fill="#ffffff" fill-opacity="1" stroke="none" transform="matrix(0.75,0,0,0.75,0,0)"
font-family="SimSun" font-size="9" font-weight="400" font-style="normal" 
>
<path vector-effect="none" fill-rule="evenodd" d="M0,0 L1646,0 L1646,266 L0,266 L0,0"/>
</g>

<g fill="#ffffff" fill-opacity="1" stroke="none" transform="matrix(7.5e-05,0,0,7.5e-05,0,0)"
font-family="SimSun" font-size="9" font-weight="400" font-style="normal" 
>
<path vector-effect="none" fill-rule="evenodd" d="M1.13e+06,160000 L1.13e+06,2.49e+06 L3.46e+06,2.49e+06 L3.46e+06,160000 L1.13e+06,160000"/>
</g>

<g fill="#212121" fill-opacity="1" stroke="#212121" stroke-opacity="1" stroke-width="2" stroke-linecap="square" stroke-linejoin="round" transform="matrix(0.75,0,0,0.75,0,0)"
font-family="SimSun" font-size="9" font-weight="400" font-style="normal" 
>
<polyline fill="none" vector-effect="none" points="113,249 346,249 " />
<polyline fill="none" vector-effect="none" points="113,16 346,16 " />
</g>

<g fill="#212121" fill-opacity="1" stroke="#212121" stroke-opacity="1" stroke-width="1" stroke-linecap="square" stroke-linejoin="bevel" transform="matrix(0,-0.75,0.75,0,28.5,145.125)"
font-family="Times New Roman" font-size="29" font-weight="400" font-style="normal" 
>
<text fill="#212121" fill-opacity="1" stroke="none" xml:space="preserve" x="0" y="0" font-family="Times New Roman" font-size="29" font-weight="400" font-style="normal" 
 >Residual e</text>
</g>

<g fill="#212121" fill-opacity="1" stroke="#212121" stroke-opacity="1" stroke-width="2" stroke-linecap="square" stroke-linejoin="round" transform="matrix(0.75,0,0,0.75,0,0)"
font-family="Times New Roman" font-size="29" font-weight="400" font-style="normal" 
>
<polyline fill="none" vector-effect="none" points="113,249 113,16 " />
<polyline fill="none" vector-effect="none" points="346,249 346,16 " />
<polyline fill="none" vector-effect="none" points="113,249 115.33,249 " />
<polyline fill="none" vector-effect="none" points="343.67,249 346,249 " />
<polyline fill="none" vector-effect="none" points="113,132.5 115.33,132.5 " />
<polyline fill="none" vector-effect="none" points="343.67,132.5 346,132.5 " />
<polyline fill="none" vector-effect="none" points="113,16 115.33,16 " />
<polyline fill="none" vector-effect="none" points="343.67,16 346,16 " />
</g>

<g fill="#212121" fill-opacity="1" stroke="#212121" stroke-opacity="1" stroke-width="1" stroke-linecap="square" stroke-linejoin="bevel" transform="matrix(0.75,0,0,0.75,37.5,193.5)"
font-family="Times New Roman" font-size="26" font-weight="400" font-style="normal" 
>
<text fill="#212121" fill-opacity="1" stroke="none" xml:space="preserve" x="0" y="0" font-family="Times New Roman" font-size="26" font-weight="400" font-style="normal" 
 >-0.05</text>
</g>

<g fill="#212121" fill-opacity="1" stroke="#212121" stroke-opacity="1" stroke-width="1" stroke-linecap="square" stroke-linejoin="bevel" transform="matrix(0.75,0,0,0.75,69,106.125)"
font-family="Times New Roman" font-size="26" font-weight="400" font-style="normal" 
>
<text fill="#212121" fill-opacity="1" stroke="none" xml:space="preserve" x="0" y="0" font-family="Times New Roman" font-size="26" font-weight="400" font-style="normal" 
 >0</text>
</g>

<g fill="#212121" fill-opacity="1" stroke="#212121" stroke-opacity="1" stroke-width="1" stroke-linecap="square" stroke-linejoin="bevel" transform="matrix(0.75,0,0,0.75,44.25,18.75)"
font-family="Times New Roman" font-size="26" font-weight="400" font-style="normal" 
>
<text fill="#212121" fill-opacity="1" stroke="none" xml:space="preserve" x="0" y="0" font-family="Times New Roman" font-size="26" font-weight="400" font-style="normal" 
 >0.05</text>
</g>

<g fill="none" stroke="#ffb25a" stroke-opacity="1" stroke-width="4" stroke-linecap="butt" stroke-linejoin="round" transform="matrix(0.75,0,0,0.75,0,0)"
font-family="Times New Roman" font-size="26" font-weight="400" font-style="normal" 
>
<polyline fill="none" vector-effect="none" points="113.582,187.825 114.165,157.606 114.747,118.607 115.33,114.301 115.912,133.289 116.495,174.939 117.077,139.648 117.66,154.48 118.243,133.329 118.825,114.598 119.408,134.056 119.99,124.458 120.573,112.675 121.155,119.877 121.738,144.582 122.32,108.669 122.902,145.251 123.485,155.676 124.067,114.045 124.65,127.378 125.232,134.397 125.815,172.999 126.397,182.449 126.98,154.276 127.563,143.462 128.145,172.451 128.727,112.728 129.31,98.9987 129.893,102.566 130.475,133.854 131.057,117.907 131.64,125.172 132.223,138.26 132.805,120.48 133.387,118.866 133.97,120.865 134.553,112.106 135.135,125.831 135.717,154.22 136.3,139.359 136.883,126.829 137.465,152.693 138.048,125.528 138.63,156.834 139.212,138.634 139.795,96.7786 140.378,130.221 140.96,109.43 141.542,143.001 142.125,116.517 142.708,147.472 143.29,141.696 143.872,141.159 144.455,169.252 145.038,131.226 145.62,101.177 146.202,138.95 146.785,158.302 147.367,123.749 147.95,114.045 148.533,124.605 149.115,129.727 149.697,102.414 150.28,127.728 150.863,149.96 151.445,155.198 152.027,141.396 152.61,162.978 153.193,140.169 153.775,111.122 154.357,149.487 154.94,137.856 155.523,96.1435 156.105,140.642 156.688,149.836 157.27,120.911 157.852,136.678 158.435,140.663 159.018,159.934 159.6,145.564 160.182,136.53 160.765,93.2405 161.348,120.114 161.93,78.5448 162.512,103.342 163.095,126.542 163.678,130.69 164.26,140.405 164.842,164.857 165.425,132.541 166.008,129.704 166.59,134.15 167.173,122.233 167.755,175.015 168.337,146.23 168.92,159.163 169.503,147.667 170.085,171.823 170.667,161.986 171.25,162.359 171.833,162.586 172.415,129.428 172.997,154.816 173.58,123.09 174.163,118.828 174.745,140.393 175.327,80.8395 175.91,112.725 176.492,123.424 177.075,140.978 177.658,164.04 178.24,115.4 178.822,118.228 179.405,173.61 179.988,159.318 180.57,171.034 181.152,88.8723 181.735,125.414 182.318,132.263 182.9,166.081 183.482,144.956 184.065,120.117 184.648,118.78 185.23,151.203 185.813,132.627 186.395,121.309 186.977,131.769 187.56,118.159 188.143,128.283 188.725,116.389 189.307,138.95 189.89,128.55 190.473,126.734 191.055,168.251 191.637,185.859 192.22,142.169 192.803,122.177 193.385,114.898 193.967,155.708 194.55,131.158 195.133,128.856 195.715,123.025 196.298,102.355 196.88,102.183 197.462,124.007 198.045,162.332 198.628,154.581 199.21,122.922 199.792,135.33 200.375,55.2789 200.958,97.6835 201.54,129.251 202.122,130.951 202.705,124.368 203.288,136.826 203.87,141.359 204.452,118.758 205.035,159.587 205.617,156.103 206.2,97.1422 206.783,133.195 207.365,101.165 207.947,144.394 208.53,162.048 209.113,123.366 209.695,115.187 210.277,105.678 210.86,122.054 211.443,133.05 212.025,161.045 212.607,147.017 213.19,149.347 213.773,169.36 214.355,164.489 214.938,135.085 215.52,119.918 216.102,90.1011 216.685,111.205 217.268,120.974 217.85,116.788 218.432,129.872 219.015,130.798 219.598,117.141 220.18,142.027 220.762,110.701 221.345,152.742 221.928,108.98 222.51,108.443 223.092,114.897 223.675,137.733 224.258,114.941 224.84,138.631 225.423,163.078 226.005,139.57 226.587,92.9365 227.17,142.414 227.753,156.358 228.335,150.301 228.917,134.951 229.5,125.233 230.083,103.634 230.665,138.54 231.247,122.976 231.83,115.722 232.413,146.7 232.995,149.091 233.577,145.671 234.16,67.1782 234.742,123.33 235.325,143.988 235.908,124.955 236.49,115.166 237.072,119.142 237.655,130.668 238.238,139.178 238.82,101.95 239.402,120.495 239.985,126.617 240.568,171.067 241.15,128.175 241.732,161.175 242.315,148.706 242.898,151.329 243.48,105.837 244.063,100.765 244.645,136.996 245.227,51.9188 245.81,127.554 246.393,100.987 246.975,147.794 247.557,141.109 248.14,102.129 248.723,113.876 249.305,68.3725 249.887,130.415 250.47,128.874 251.053,112.989 251.635,183.407 252.217,162.395 252.8,108.515 253.383,114.971 253.965,148.642 254.548,128.754 255.13,104.403 255.712,156.305 256.295,117.722 256.878,134.348 257.46,108.904 258.043,108.229 258.625,191.147 259.207,150.107 259.79,147.455 260.372,116.383 260.955,134.388 261.538,148.54 262.12,130.844 262.703,131.564 263.285,89.3748 263.867,140.722 264.45,200.583 265.033,129.616 265.615,123.991 266.198,110.722 266.78,113.054 267.362,139.944 267.945,136.758 268.527,121.657 269.11,126.476 269.693,122.264 270.275,159.012 270.858,117.946 271.44,102.735 272.022,152.556 272.605,137.498 273.188,176.919 273.77,140.271 274.353,119.703 274.935,138.524 275.517,105.836 276.1,115.215 276.682,136.408 277.265,137.529 277.848,145.066 278.43,117.619 279.013,146.852 279.595,165.997 280.177,141.117 280.76,138.83 281.342,113.176 281.925,132.965 282.508,147.305 283.09,160.091 283.672,125.613 284.255,136.438 284.837,152.054 285.42,137.182 286.003,111.287 286.585,138.3 287.168,109.381 287.75,128.302 288.332,135.856 288.915,140.181 289.497,136.044 290.08,148.072 290.663,109.92 291.245,173.709 291.828,129.411 292.41,121.935 292.992,154.214 293.575,133.785 294.158,103.116 294.74,138.112 295.323,125.796 295.905,115.332 296.487,118.195 297.07,143.359 297.652,143.429 298.235,171.049 298.818,138.745 299.4,146.342 299.983,119.017 300.565,102.842 301.147,141.175 301.73,147.773 302.313,120.673 302.895,141.076 303.478,102.092 304.06,114.034 304.642,102.44 305.225,103.706 305.807,122.746 306.39,135.022 306.973,190.147 307.555,158.005 308.138,159.895 308.72,150.794 309.302,147.276 309.885,119.252 310.467,92.8879 311.05,112.78 311.633,108.64 312.215,184.389 312.797,140.871 313.38,86.9887 313.962,104.651 314.545,137.107 315.128,113.275 315.71,110.168 316.293,134.187 316.875,135.956 317.457,123.013 318.04,83.5572 318.622,102.91 319.205,128.054 319.788,159.288 320.37,148.792 320.953,118.611 321.535,143.37 322.117,137.461 322.7,101.636 323.283,163.148 323.865,125.225 324.448,92.0921 325.03,111.541 325.612,165.812 326.195,112.547 326.777,148.37 327.36,141.374 327.943,130.63 328.525,133.42 329.108,111.919 329.69,130.302 330.272,114.106 330.855,81.2138 331.438,118.09 332.02,142.365 332.603,137.787 333.185,127.427 333.767,163.603 334.35,176.766 334.932,143.92 335.515,140.446 336.098,112.132 336.68,91.7637 337.263,129.276 337.845,135.718 338.427,134.751 339.01,163.319 339.592,121 340.175,180.763 340.758,181.924 341.34,110.924 341.922,119.612 342.505,145.775 343.087,199.59 343.67,100.147 344.253,143.541 344.835,127.118 345.418,148.935 " />
</g>

<g fill="none" stroke="#2cd35f" stroke-opacity="1" stroke-width="4" stroke-linecap="butt" stroke-linejoin="round" transform="matrix(0.75,0,0,0.75,0,0)"
font-family="Times New Roman" font-size="26" font-weight="400" font-style="normal" 
>
<polyline fill="none" vector-effect="none" points="113.582,143.805 114.165,148.025 114.747,148.502 115.33,142.273 115.912,115.252 116.495,124.12 117.077,120.341 117.66,98.8382 118.243,92.9606 118.825,151.363 119.408,146.174 119.99,172.655 120.573,159.055 121.155,125.256 121.738,109.397 122.32,113.727 122.902,127.837 123.485,156.09 124.067,115.292 124.65,128.545 125.232,134.476 125.815,144.757 126.397,120.457 126.98,82.8149 127.563,104.183 128.145,139.462 128.727,89.0179 129.31,130.417 129.893,154.324 130.475,145.815 131.057,111.492 131.64,116.962 132.223,123.599 132.805,142.395 133.387,147.732 133.97,120.798 134.553,146.665 135.135,114.972 135.717,111.698 136.3,119.69 136.883,133.169 137.465,166.753 138.048,159.78 138.63,112.535 139.212,133.687 139.795,122.74 140.378,152.255 140.96,178.732 141.542,111.634 142.125,153.35 142.708,147.816 143.29,88.0661 143.872,149.644 144.455,99.7523 145.038,134.853 145.62,114.302 146.202,117.882 146.785,158.29 147.367,117.365 147.95,121.552 148.533,101.978 149.115,125.573 149.697,89.6723 150.28,132.172 150.863,132.925 151.445,151.102 152.027,150.473 152.61,122.171 153.193,125.68 153.775,143.856 154.357,153.011 154.94,167.639 155.523,123.737 156.105,117.846 156.688,147.086 157.27,155.024 157.852,121.256 158.435,118.506 159.018,105.829 159.6,122.363 160.182,145.616 160.765,135.141 161.348,160.252 161.93,133.735 162.512,150.246 163.095,171.927 163.678,83.0311 164.26,109.316 164.842,143.065 165.425,155.769 166.008,135.356 166.59,147.573 167.173,165.293 167.755,124.084 168.337,140.277 168.92,133.826 169.503,107.933 170.085,82.1542 170.667,118.112 171.25,134.669 171.833,144.533 172.415,117.623 172.997,122.808 173.58,145.053 174.163,113.69 174.745,120.793 175.327,123.886 175.91,119.591 176.492,119.878 177.075,134.307 177.658,155.18 178.24,131.574 178.822,101.038 179.405,149.047 179.988,161.758 180.57,112.747 181.152,106.452 181.735,160.907 182.318,148.941 182.9,134.397 183.482,142.083 184.065,138.739 184.648,140.092 185.23,113.439 185.813,137.17 186.395,116.576 186.977,121.203 187.56,154.762 188.143,166.55 188.725,114.294 189.307,115.801 189.89,121.371 190.473,99.1947 191.055,126.029 191.637,123.329 192.22,131.929 192.803,162.928 193.385,122.248 193.967,125.961 194.55,139.836 195.133,140.147 195.715,134.562 196.298,135.095 196.88,124.875 197.462,158.899 198.045,152.575 198.628,125.736 199.21,120.358 199.792,123.296 200.375,99.0444 200.958,121.462 201.54,149.957 202.122,149.597 202.705,103.032 203.288,109.567 203.87,127.809 204.452,131.542 205.035,118.818 205.617,93.1047 206.2,152.455 206.783,158.078 207.365,138.841 207.947,124.148 208.53,123.998 209.113,127.543 209.695,75.5799 210.277,116.428 210.86,121.28 211.443,115.469 212.025,132.845 212.607,122.787 213.19,141.301 213.773,133.283 214.355,111.827 214.938,116.438 215.52,123.675 216.102,143.401 216.685,134.023 217.268,114.575 217.85,173.713 218.432,165.378 219.015,176.391 219.598,117.451 220.18,152.991 220.762,143.691 221.345,149.072 221.928,138.592 222.51,109.921 223.092,142.334 223.675,138.771 224.258,142.467 224.84,154.853 225.423,133.608 226.005,149.797 226.587,119.001 227.17,134.884 227.753,125.703 228.335,136.906 228.917,146.838 229.5,101.051 230.083,155.083 230.665,127.294 231.247,130.883 231.83,129.274 232.413,114.713 232.995,135.163 233.577,125.46 234.16,169.501 234.742,184.037 235.325,110.637 235.908,129.072 236.49,98.3054 237.072,153.017 237.655,161.331 238.238,114.727 238.82,143.772 239.402,152.17 239.985,136.741 240.568,140.741 241.15,115.332 241.732,115.035 242.315,141.726 242.898,140.698 243.48,102.884 244.063,82.4896 244.645,132.555 245.227,124.117 245.81,143.236 246.393,135.246 246.975,147.63 247.557,147.323 248.14,131.629 248.723,168.472 249.305,150.124 249.887,106.637 250.47,129.77 251.053,113.613 251.635,119.104 252.217,152.292 252.8,125.319 253.383,166.566 253.965,149.796 254.548,117.646 255.13,102.68 255.712,140.115 256.295,155.711 256.878,114.391 257.46,130.474 258.043,142.081 258.625,132.139 259.207,164.748 259.79,146.286 260.372,127.117 260.955,116.183 261.538,135.631 262.12,158.101 262.703,128.28 263.285,122.408 263.867,143.574 264.45,127.886 265.033,98.0712 265.615,125.781 266.198,131.869 266.78,141.399 267.362,112.477 267.945,116.078 268.527,148.884 269.11,133.478 269.693,139.045 270.275,119.613 270.858,123.622 271.44,159.602 272.022,133.787 272.605,126.404 273.188,161.463 273.77,104.084 274.353,98.4655 274.935,143.174 275.517,124.783 276.1,124.235 276.682,140.612 277.265,141.226 277.848,145.951 278.43,182.1 279.013,155.048 279.595,131.811 280.177,109.193 280.76,106.791 281.342,103.349 281.925,145.244 282.508,158.222 283.09,114.002 283.672,134.392 284.255,153.886 284.837,143.345 285.42,108.036 286.003,149.609 286.585,155.69 287.168,124.752 287.75,137.874 288.332,172.357 288.915,134.95 289.497,119.333 290.08,116.676 290.663,110.459 291.245,109.363 291.828,142.423 292.41,107.888 292.992,109.13 293.575,116.963 294.158,126.792 294.74,152.734 295.323,157.964 295.905,116.084 296.487,141.543 297.07,136.345 297.652,166.481 298.235,166.314 298.818,128.237 299.4,107.289 299.983,140.765 300.565,113.795 301.147,122.066 301.73,129.565 302.313,142.147 302.895,172.098 303.478,147.285 304.06,104.703 304.642,119.458 305.225,113.461 305.807,119.507 306.39,122.794 306.973,150.116 307.555,132.011 308.138,133.655 308.72,125.749 309.302,132.603 309.885,108.889 310.467,104.036 311.05,119.204 311.633,119.426 312.215,131.569 312.797,163.212 313.38,114.635 313.962,152.585 314.545,163.007 315.128,135.047 315.71,134.124 316.293,128.273 316.875,125.956 317.457,105.242 318.04,123.879 318.622,139.239 319.205,166.636 319.788,159.716 320.37,153.166 320.953,157.017 321.535,164.303 322.117,140.694 322.7,111.064 323.283,152.981 323.865,118.466 324.448,125.306 325.03,122.112 325.612,161.998 326.195,157.087 326.777,148.668 327.36,118.209 327.943,127.746 328.525,144.473 329.108,141.042 329.69,99.4643 330.272,127.643 330.855,132.023 331.438,115.987 332.02,139.239 332.603,109.681 333.185,103.497 333.767,109.022 334.35,137.046 334.932,181.686 335.515,140.761 336.098,160.044 336.68,118.107 337.263,100.777 337.845,133.568 338.427,145.48 339.01,129.122 339.592,111.71 340.175,150.404 340.758,174.623 341.34,170.061 341.922,123.237 342.505,128.574 343.087,116.078 343.67,152.888 344.253,164.279 344.835,125.166 345.418,135.247 " />
</g>

<g fill="#ffffff" fill-opacity="1" stroke="none" transform="matrix(7.5e-05,0,0,7.5e-05,0,0)"
font-family="Times New Roman" font-size="26" font-weight="400" font-style="normal" 
>
<path vector-effect="none" fill-rule="evenodd" d="M3.69e+06,160000 L3.69e+06,2.49e+06 L6.02e+06,2.49e+06 L6.02e+06,160000 L3.69e+06,160000"/>
</g>

<g fill="#212121" fill-opacity="1" stroke="#212121" stroke-opacity="1" stroke-width="2" stroke-linecap="square" stroke-linejoin="round" transform="matrix(0.75,0,0,0.75,0,0)"
font-family="Times New Roman" font-size="26" font-weight="400" font-style="normal" 
>
<polyline fill="none" vector-effect="none" points="369,249 602,249 " />
<polyline fill="none" vector-effect="none" points="369,16 602,16 " />
<polyline fill="none" vector-effect="none" points="369,249 369,16 " />
<polyline fill="none" vector-effect="none" points="602,249 602,16 " />
</g>

<g fill="none" stroke="#ffb25a" stroke-opacity="1" stroke-width="4" stroke-linecap="butt" stroke-linejoin="round" transform="matrix(0.75,0,0,0.75,0,0)"
font-family="Times New Roman" font-size="26" font-weight="400" font-style="normal" 
>
<polyline fill="none" vector-effect="none" points="369.582,139.228 370.165,150.018 370.747,145.037 371.33,186.398 371.913,104.744 372.495,105.112 373.078,110.403 373.66,106.346 374.242,103.939 374.825,82.7888 375.408,87.7375 375.99,78.9683 376.573,45.7201 377.155,47.8942 377.737,66.7317 378.32,98.0194 378.902,106.872 379.485,116.545 380.068,124.744 380.65,105.553 381.233,88.9646 381.815,68.7692 382.397,139.325 382.98,130.966 383.563,113.827 384.145,103.752 384.728,88.768 385.31,117.381 385.892,66.4203 386.475,104.171 387.057,108.287 387.64,141.857 388.223,90.9349 388.805,150.378 389.388,137.903 389.97,133.635 390.552,122.57 391.135,119.497 391.717,90.6729 392.3,82.902 392.883,107.024 393.465,107.722 394.047,123.101 394.63,134.896 395.212,130.615 395.795,143.866 396.378,138.084 396.96,116.391 397.543,128.71 398.125,107.726 398.707,102.746 399.29,121.102 399.872,128.942 400.455,97.6486 401.038,90.0999 401.62,94.1852 402.203,115.275 402.785,104.026 403.367,107.355 403.95,132.465 404.533,100.976 405.115,127.031 405.698,138.524 406.28,109.869 406.862,89.6085 407.445,79.986 408.027,88.5508 408.61,92.2415 409.193,66.219 409.775,105.142 410.358,101.573 410.94,102.672 411.522,121.278 412.105,123.021 412.688,114.162 413.27,93.8416 413.853,115.48 414.435,146.782 415.017,99.4934 415.6,88.7422 416.182,133.056 416.765,130.76 417.348,108.158 417.93,88.7239 418.513,70.7277 419.095,75.8853 419.677,104.254 420.26,108.55 420.842,124.686 421.425,116.574 422.008,114.296 422.59,139.367 423.172,105.85 423.755,114.942 424.337,152.29 424.92,145.408 425.503,123.539 426.085,141.578 426.668,133.395 427.25,114.552 427.832,129.182 428.415,119.283 428.997,108.681 429.58,152.081 430.163,128.024 430.745,145.434 431.328,154.548 431.91,101.159 432.492,120.345 433.075,130.396 433.658,158.558 434.24,141.867 434.823,135.384 435.405,113.09 435.987,122.227 436.57,123.605 437.152,158.682 437.735,151.345 438.318,144.033 438.9,121.701 439.483,90.5617 440.065,92.9727 440.647,66.17 441.23,124.855 441.813,145.272 442.395,119.045 442.978,137.441 443.56,156.205 444.142,142.876 444.725,186.307 445.307,164.729 445.89,137.019 446.473,95.0198 447.055,153.197 447.638,157.169 448.22,116.057 448.802,153.416 449.385,161.768 449.967,157.869 450.55,158.128 451.133,155.496 451.715,172.462 452.297,226.139 452.88,218.332 453.462,178.889 454.045,162.438 454.628,155.069 455.21,141.942 455.793,162.526 456.375,181.884 456.957,189.725 457.54,172.412 458.122,176.25 458.705,174.605 459.288,187.317 459.87,212.726 460.453,179.78 461.035,163.08 461.617,138.32 462.2,137.544 462.783,174.466 463.365,167.797 463.948,185.75 464.53,177.808 465.112,170.781 465.695,178.406 466.277,181.925 466.86,190.4 467.443,178.894 468.025,157.423 468.608,101.121 469.19,118.947 469.772,156.59 470.355,198.306 470.938,196.353 471.52,170.084 472.103,183.552 472.685,191.55 473.267,176.383 473.85,150.072 474.432,151.911 475.015,146.996 475.598,146.479 476.18,159.952 476.763,150.029 477.345,161.314 477.927,203.573 478.51,211.797 479.092,182.335 479.675,150.773 480.258,145.264 480.84,132.399 481.422,133.399 482.005,149.518 482.587,141.683 483.17,162.709 483.753,165.638 484.335,137.505 484.918,100.858 485.5,135.392 486.082,125.654 486.665,122.523 487.247,119.465 487.83,158.783 488.413,168.371 488.995,183.916 489.578,155.371 490.16,142.288 490.742,173.823 491.325,153.667 491.908,153.465 492.49,141.934 493.073,128.208 493.655,132.345 494.237,106.868 494.82,137.874 495.402,151.147 495.985,145.032 496.568,137.948 497.15,142.474 497.733,169.688 498.315,164.814 498.897,168.073 499.48,191.086 500.063,164.786 500.645,121.53 501.228,111.328 501.81,109.301 502.392,114.885 502.975,97.7847 503.557,123.046 504.14,136.56 504.723,132.356 505.305,150.148 505.888,114.551 506.47,95.3646 507.052,115.412 507.635,115.901 508.217,133.093 508.8,129.734 509.383,170.776 509.965,163.76 510.547,171.345 511.13,145.766 511.712,120.968 512.295,132.448 512.878,123.739 513.46,115.039 514.042,111.883 514.625,93.0229 515.208,151.335 515.79,146.535 516.372,182.356 516.955,169.144 517.537,120.16 518.12,134.845 518.703,138.351 519.285,128.025 519.867,114.906 520.45,104.26 521.032,120.049 521.615,129.657 522.198,113.732 522.78,98.6696 523.362,94.6068 523.945,115.561 524.528,90.0048 525.11,108.027 525.693,71.1613 526.275,37.9047 526.857,44.9166 527.44,58.1259 528.023,92.7127 528.605,105.722 529.188,89.0864 529.77,110.624 530.352,119.67 530.935,82.4504 531.518,52.1063 532.1,31.2763 532.682,62.2455 533.265,79.1099 533.847,91.5589 534.43,117.543 535.013,116.409 535.595,108.11 536.177,94.6483 536.76,115.082 537.343,109.644 537.925,98.7314 538.508,64.2043 539.09,74.6869 539.672,78.5696 540.255,85.2752 540.838,102.271 541.42,99.8575 542.003,116.442 542.585,117.117 543.167,90.8476 543.75,91.8728 544.333,80.1915 544.915,45.179 545.497,87.8876 546.08,65.7507 546.662,98.4277 547.245,99.7524 547.828,126.092 548.41,133.216 548.992,119.647 549.575,106.357 550.157,123.3 550.74,85.0576 551.323,88.4832 551.905,92.6655 552.487,76.297 553.07,94.3637 553.653,109.291 554.235,94.9129 554.818,90.9541 555.4,103.094 555.982,134.808 556.565,127.903 557.148,120.929 557.73,113.522 558.313,161.944 558.895,145.767 559.477,122.119 560.06,164.837 560.643,140.886 561.225,142.134 561.807,122.731 562.39,107.408 562.972,136.367 563.555,135.391 564.138,161.721 564.72,160.322 565.302,163.634 565.885,166.789 566.468,165.324 567.05,141.514 567.633,147.32 568.215,141.331 568.797,105.98 569.38,129.844 569.963,141.152 570.545,133.281 571.128,162.776 571.71,173.115 572.292,164.172 572.875,176.554 573.458,136.756 574.04,125.115 574.622,120.936 575.205,126.185 575.787,129.214 576.37,146.082 576.953,185.445 577.535,151.4 578.117,118.43 578.7,124.124 579.282,144.692 579.865,152.409 580.448,165.464 581.03,178.41 581.612,143.719 582.195,154.09 582.778,168.826 583.36,170.416 583.943,173.277 584.525,157.259 585.107,110.733 585.69,116.53 586.273,172.587 586.855,158.439 587.438,145.675 588.02,173.91 588.602,184.255 589.185,152.095 589.768,195.883 590.35,173.055 590.932,170.352 591.515,190.209 592.097,204.796 592.68,179.245 593.263,162.352 593.845,183.714 594.427,190.457 595.01,193.102 595.593,202.261 596.175,210.901 596.758,212.667 597.34,197.795 597.922,227.838 598.505,181.502 599.088,135.85 599.67,172.395 600.253,175.839 600.835,150.804 601.417,152.766 " />
</g>

<g fill="none" stroke="#2cd35f" stroke-opacity="1" stroke-width="4" stroke-linecap="butt" stroke-linejoin="round" transform="matrix(0.75,0,0,0.75,0,0)"
font-family="Times New Roman" font-size="26" font-weight="400" font-style="normal" 
>
<polyline fill="none" vector-effect="none" points="369.582,116.473 370.165,101.216 370.747,105.303 371.33,120.057 371.913,172.519 372.495,173.19 373.078,146.567 373.66,106.351 374.242,123.055 374.825,150.696 375.408,162.696 375.99,137.31 376.573,117.147 377.155,135.592 377.737,142.46 378.32,144.444 378.902,157.868 379.485,129.248 380.068,153.794 380.65,110.908 381.233,113.66 381.815,92.977 382.397,106.994 382.98,142.388 383.563,155.036 384.145,126.462 384.728,149.177 385.31,95.3265 385.892,137.964 386.475,151.792 387.057,172.754 387.64,190.976 388.223,129.615 388.805,145.7 389.388,136.123 389.97,125.861 390.552,134.718 391.135,145.008 391.717,118.291 392.3,112.832 392.883,133.344 393.465,160.646 394.047,140.857 394.63,143.957 395.212,150.328 395.795,128.115 396.378,139.565 396.96,123.403 397.543,118.199 398.125,112.274 398.707,101.769 399.29,139.329 399.872,136.796 400.455,160.217 401.038,132.517 401.62,130.629 402.203,115.808 402.785,98.5124 403.367,83.3223 403.95,132.855 404.533,117.945 405.115,78.7773 405.698,117.528 406.28,133.871 406.862,147.003 407.445,96.3517 408.027,86.807 408.61,111.384 409.193,88.972 409.775,94.2103 410.358,47.1989 410.94,85.6787 411.522,132.047 412.105,156.219 412.688,149.549 413.27,124.398 413.853,117.873 414.435,145.38 415.017,153.905 415.6,147.173 416.182,156.054 416.765,81.7005 417.348,85.3142 417.93,61.8097 418.513,79.2539 419.095,111.209 419.677,101.734 420.26,85.0698 420.842,111.421 421.425,77.4532 422.008,88.7154 422.59,109.69 423.172,108.491 423.755,119.962 424.337,142.065 424.92,127.269 425.503,83.2611 426.085,99.9352 426.668,119.707 427.25,123.493 427.832,134.789 428.415,96.9019 428.997,67.3504 429.58,91.4467 430.163,73.7746 430.745,100.62 431.328,144.241 431.91,141.898 432.492,108.491 433.075,132.3 433.658,120.15 434.24,131.503 434.823,124.768 435.405,109.426 435.987,107.68 436.57,126.528 437.152,152.31 437.735,73.0093 438.318,94.6574 438.9,103.65 439.483,123.402 440.065,129.755 440.647,110.45 441.23,92.4429 441.813,100.96 442.395,130.416 442.978,119.645 443.56,88.7296 444.142,121.734 444.725,110.874 445.307,102.459 445.89,120.453 446.473,95.5434 447.055,60.4153 447.638,77.0225 448.22,65.4026 448.802,81.8166 449.385,81.5486 449.967,113.187 450.55,96.584 451.133,95.1127 451.715,100.541 452.297,84.1101 452.88,118.909 453.462,139.721 454.045,141.969 454.628,118.094 455.21,108.012 455.793,103.181 456.375,102.305 456.957,87.1396 457.54,86.2328 458.122,110.935 458.705,138.141 459.288,106.059 459.87,86.2227 460.453,145.636 461.035,139.458 461.617,117.275 462.2,113.234 462.783,137.723 463.365,113.284 463.948,96.2464 464.53,103.479 465.112,101.038 465.695,143.959 466.277,124.343 466.86,123.871 467.443,153.999 468.025,156.951 468.608,119.538 469.19,133.62 469.772,124.285 470.355,130.79 470.938,117.414 471.52,130.264 472.103,142.524 472.685,146.055 473.267,153.844 473.85,137.403 474.432,113.563 475.015,119.611 475.598,92.8204 476.18,121.551 476.763,151.486 477.345,160.536 477.927,137.861 478.51,177.727 479.092,202.036 479.675,198.936 480.258,142.586 480.84,136.063 481.422,113.964 482.005,108.791 482.587,174.646 483.17,144.582 483.753,178.335 484.335,193.741 484.918,174.639 485.5,142.286 486.082,146.786 486.665,171.87 487.247,185.6 487.83,170.802 488.413,171.297 488.995,168.22 489.578,138.209 490.16,126.882 490.742,171.983 491.325,171.749 491.908,166.116 492.49,145.905 493.073,160.043 493.655,167.546 494.237,160.67 494.82,138.395 495.402,156.385 495.985,139.756 496.568,146.729 497.15,176.862 497.733,170.577 498.315,171.249 498.897,148.806 499.48,133.849 500.063,119.653 500.645,120.035 501.228,108.321 501.81,134.634 502.392,147.651 502.975,148.7 503.557,139.122 504.14,137.616 504.723,136.089 505.305,147.842 505.888,136.424 506.47,183.685 507.052,155.454 507.635,167.493 508.217,173.298 508.8,176.879 509.383,150.897 509.965,124.919 510.547,167.968 511.13,182.817 511.712,182.069 512.295,175.149 512.878,157.095 513.46,127.771 514.042,149.334 514.625,178.708 515.208,167.858 515.79,159.231 516.372,182.593 516.955,146.861 517.537,161.017 518.12,119.203 518.703,117.973 519.285,150.829 519.867,141.445 520.45,140.071 521.032,148.275 521.615,134.173 522.198,119.211 522.78,116.337 523.362,117.27 523.945,182.126 524.528,156.142 525.11,160.602 525.693,175.383 526.275,181.144 526.857,130.112 527.44,101.448 528.023,120.953 528.605,172.412 529.188,158.719 529.77,158.104 530.352,170.162 530.935,170.251 531.518,172.874 532.1,151.995 532.682,103.457 533.265,122.98 533.847,109.435 534.43,115.436 535.013,110.85 535.595,146.411 536.177,155.134 536.76,134.251 537.343,116.513 537.925,125.601 538.508,87.5661 539.09,104.632 539.672,85.6307 540.255,101.522 540.838,71.6574 541.42,86.9293 542.003,153.311 542.585,147.164 543.167,144.005 543.75,112.517 544.333,84.3438 544.915,112.629 545.497,89.7048 546.08,89.8794 546.662,151.043 547.245,118.506 547.828,124.47 548.41,127.372 548.992,131.852 549.575,136.009 550.157,94.7194 550.74,95.8788 551.323,134.287 551.905,81.9679 552.487,142.994 553.07,94.4086 553.653,133.296 554.235,111.221 554.818,122.112 555.4,110.936 555.982,100.796 556.565,118.562 557.148,132.056 557.73,90.971 558.313,111.17 558.895,148.919 559.477,147.096 560.06,98.7496 560.643,114.469 561.225,69.7292 561.807,72.1476 562.39,98.0543 562.972,135.469 563.555,81.245 564.138,77.8232 564.72,101.215 565.302,104.714 565.885,119.994 566.468,104.787 567.05,107.777 567.633,131.726 568.215,108.851 568.797,105.954 569.38,90.6737 569.963,81.5136 570.545,76.1617 571.128,80.8589 571.71,115.037 572.292,112.412 572.875,99.5061 573.458,117.101 574.04,175.839 574.622,139.848 575.205,108.772 575.787,132.947 576.37,71.0334 576.953,108.989 577.535,133.646 578.117,124.275 578.7,156.133 579.282,107.77 579.865,101.972 580.448,112.652 581.03,100.03 581.612,72.0099 582.195,106.109 582.778,97.3465 583.36,124.628 583.943,125.834 584.525,136.204 585.107,152.641 585.69,141.994 586.273,132.989 586.855,102.504 587.438,84.6938 588.02,114.137 588.602,157.114 589.185,119.487 589.768,125.859 590.35,122.657 590.932,123.198 591.515,109.58 592.097,74.2769 592.68,49.3732 593.263,90.9442 593.845,111.94 594.427,109.053 595.01,92.4242 595.593,163.901 596.175,131.558 596.758,157.947 597.34,173.511 597.922,160.212 598.505,165.545 599.088,125.768 599.67,110.21 600.253,86.5976 600.835,124.432 601.417,104.525 " />
</g>

<g fill="#ffffff" fill-opacity="1" stroke="none" transform="matrix(7.5e-05,0,0,7.5e-05,0,0)"
font-family="Times New Roman" font-size="26" font-weight="400" font-style="normal" 
>
<path vector-effect="none" fill-rule="evenodd" d="M6.25e+06,160000 L6.25e+06,2.49e+06 L8.58e+06,2.49e+06 L8.58e+06,160000 L6.25e+06,160000"/>
</g>

<g fill="#212121" fill-opacity="1" stroke="#212121" stroke-opacity="1" stroke-width="2" stroke-linecap="square" stroke-linejoin="round" transform="matrix(0.75,0,0,0.75,0,0)"
font-family="Times New Roman" font-size="26" font-weight="400" font-style="normal" 
>
<polyline fill="none" vector-effect="none" points="625,249 858,249 " />
<polyline fill="none" vector-effect="none" points="625,16 858,16 " />
<polyline fill="none" vector-effect="none" points="625,249 625,16 " />
<polyline fill="none" vector-effect="none" points="858,249 858,16 " />
</g>

<g fill="none" stroke="#ffb25a" stroke-opacity="1" stroke-width="4" stroke-linecap="butt" stroke-linejoin="round" transform="matrix(0.75,0,0,0.75,0,0)"
font-family="Times New Roman" font-size="26" font-weight="400" font-style="normal" 
>
<polyline fill="none" vector-effect="none" points="625.583,109.721 626.165,112.403 626.747,106.09 627.33,117.024 627.912,123.23 628.495,115.648 629.078,119.33 629.66,117.86 630.242,104.619 630.825,118.783 631.407,125.885 631.99,137.288 632.573,156.643 633.155,155.996 633.737,131.884 634.32,123.817 634.903,120.39 635.485,131.621 636.068,125.222 636.65,133.973 637.232,126.784 637.815,129.733 638.398,122.814 638.98,138.833 639.563,135.319 640.145,119.708 640.727,123.078 641.31,129.724 641.893,140.4 642.475,118.932 643.057,134.095 643.64,131.595 644.222,138.328 644.805,140.28 645.388,125.788 645.97,112.957 646.552,114.797 647.135,132.242 647.718,137.203 648.3,122.925 648.883,128.646 649.465,122.933 650.047,135.237 650.63,121.618 651.213,121.538 651.795,129.809 652.378,148.192 652.96,143.045 653.542,135.863 654.125,123.93 654.708,120.783 655.29,119.31 655.872,128.434 656.455,140.999 657.037,133.093 657.62,132.912 658.203,134.51 658.785,148.542 659.367,128.149 659.95,135.059 660.532,132.943 661.115,135.715 661.698,119.07 662.28,129.915 662.862,134.055 663.445,142.303 664.028,124.885 664.61,136.278 665.193,133.331 665.775,132.239 666.357,134.456 666.94,127.142 667.523,122.241 668.105,134.574 668.688,127.169 669.27,142.37 669.852,140.772 670.435,129.042 671.018,131.765 671.6,154.354 672.182,126.709 672.765,132.586 673.347,127.318 673.93,121.687 674.513,133.613 675.095,146.222 675.677,125.199 676.26,146.968 676.843,139.457 677.425,139.089 678.008,141.118 678.59,115.987 679.172,144.412 679.755,138.891 680.338,132.8 680.92,138.02 681.503,140.993 682.085,131.453 682.667,131.677 683.25,116.937 683.833,124.047 684.415,132.851 684.997,139.712 685.58,133.401 686.162,128.332 686.745,131.903 687.328,119.289 687.91,129.264 688.492,138.309 689.075,127.086 689.657,136.884 690.24,128.556 690.823,140.391 691.405,125.761 691.987,117.266 692.57,148.212 693.153,149.932 693.735,142.235 694.318,128.794 694.9,127.025 695.482,127.831 696.065,128.26 696.648,129.467 697.23,123.946 697.813,134.688 698.395,125.392 698.977,142.593 699.56,140.393 700.143,142.13 700.725,140.724 701.307,119.691 701.89,126.374 702.472,130.819 703.055,117.946 703.638,131.422 704.22,132.935 704.802,125.667 705.385,126.623 705.968,132.001 706.55,133.055 707.133,134.059 707.715,137.808 708.297,130.012 708.88,134.232 709.463,140.627 710.045,131.45 710.628,135.243 711.21,146.324 711.792,139.277 712.375,134.968 712.958,127.501 713.54,131.477 714.122,106.857 714.705,135.988 715.287,132.068 715.87,140.25 716.453,126.907 717.035,120.75 717.617,132.963 718.2,129.662 718.782,145.131 719.365,133.32 719.948,136.185 720.53,122.069 721.112,129.116 721.695,127.342 722.278,130.882 722.86,147.169 723.443,129.993 724.025,134.141 724.607,123.641 725.19,124.214 725.773,118.395 726.355,144.771 726.938,133.595 727.52,127.39 728.102,123.975 728.685,120.329 729.268,130.6 729.85,134.145 730.432,128.221 731.015,124.583 731.597,124.58 732.18,137.305 732.763,133.436 733.345,127.057 733.927,127.402 734.51,133.609 735.093,134.766 735.675,129.036 736.258,116.561 736.84,116.978 737.422,116.639 738.005,138.456 738.588,141.503 739.17,141.961 739.753,130.552 740.335,112.456 740.917,139.181 741.5,136.112 742.083,128.688 742.665,122.913 743.247,126.356 743.83,128.95 744.412,132.063 744.995,146.231 745.578,142.049 746.16,141.711 746.742,131.999 747.325,141.222 747.907,128.169 748.49,134.151 749.073,138.607 749.655,133.055 750.237,142.853 750.82,143.82 751.403,127.181 751.985,124.769 752.568,129.832 753.15,122.677 753.732,139 754.315,129.397 754.898,131.406 755.48,135.523 756.063,132.073 756.645,134.968 757.227,131.852 757.81,136.84 758.393,136.175 758.975,126.876 759.557,145.064 760.14,126.501 760.722,152.267 761.305,134.277 761.888,123.042 762.47,138.675 763.052,130.784 763.635,136.901 764.218,145.51 764.8,131.275 765.383,137.601 765.965,135.296 766.547,136.546 767.13,136.938 767.713,126.651 768.295,132.574 768.878,135.24 769.46,128.069 770.042,133.716 770.625,142.785 771.208,126.838 771.79,135.792 772.372,139.202 772.955,141.527 773.537,127.818 774.12,129.693 774.703,137.022 775.285,146.228 775.867,136.825 776.45,130.942 777.032,119.62 777.615,136.037 778.198,129.867 778.78,138.962 779.362,131.663 779.945,148.897 780.528,118.117 781.11,134.236 781.693,116.562 782.275,134.438 782.857,133.425 783.44,129.585 784.023,118.123 784.605,117.093 785.188,138.005 785.77,125.897 786.352,132.8 786.935,133.216 787.518,135.799 788.1,137.478 788.682,132.677 789.265,142.782 789.847,135.041 790.43,133.312 791.013,136.068 791.595,127.328 792.177,128.871 792.76,121.844 793.343,128.942 793.925,127.837 794.508,139.824 795.09,132.001 795.672,129.514 796.255,140.648 796.838,134.975 797.42,139.342 798.003,125.037 798.585,139.283 799.167,127.149 799.75,138.538 800.333,125.518 800.915,129.971 801.497,129.774 802.08,145.558 802.662,144.183 803.245,141.506 803.828,134.785 804.41,130.376 804.992,127.87 805.575,126.154 806.157,115.358 806.74,129.192 807.323,139.552 807.905,137.969 808.487,119.44 809.07,125.467 809.653,123.794 810.235,125.507 810.818,125.028 811.4,132.261 811.982,144.14 812.565,127.381 813.148,125.763 813.73,133.516 814.313,135.422 814.895,129.844 815.477,139.048 816.06,111.079 816.643,123.736 817.225,132.403 817.807,131.754 818.39,131.33 818.972,121.452 819.555,132.011 820.138,124.949 820.72,142.72 821.302,141.794 821.885,146.605 822.468,137.524 823.05,125.058 823.633,126.346 824.215,120.865 824.797,140.715 825.38,126.374 825.963,120.126 826.545,128.959 827.128,139.807 827.71,137.274 828.292,140.374 828.875,132.51 829.458,128.674 830.04,134.094 830.622,141.853 831.205,135.158 831.787,123.744 832.37,135.415 832.953,118.877 833.535,125.945 834.117,130.526 834.7,132.725 835.282,141.458 835.865,125.348 836.448,134.598 837.03,125.587 837.612,127.65 838.195,131.122 838.778,125.769 839.36,143.523 839.943,127.561 840.525,142.884 841.107,127.808 841.69,136.039 842.273,139.114 842.855,134.664 843.438,129.318 844.02,130.962 844.602,124.84 845.185,138.932 845.768,126.206 846.35,126.144 846.932,141.939 847.515,141.44 848.097,139.093 848.68,128.097 849.263,114.817 849.845,126.395 850.427,132.895 851.01,135.284 851.593,147.364 852.175,138.984 852.758,135.376 853.34,148.749 853.922,139.855 854.505,148.985 855.088,143.702 855.67,148.949 856.253,137.243 856.835,135.407 857.417,116.121 " />
</g>

<g fill="none" stroke="#2cd35f" stroke-opacity="1" stroke-width="4" stroke-linecap="butt" stroke-linejoin="round" transform="matrix(0.75,0,0,0.75,0,0)"
font-family="Times New Roman" font-size="26" font-weight="400" font-style="normal" 
>
<polyline fill="none" vector-effect="none" points="625.583,112.568 626.165,131.572 626.747,116.86 627.33,133.513 627.912,131.399 628.495,137.471 629.078,139.288 629.66,131.462 630.242,124.072 630.825,139.755 631.407,128.939 631.99,128.472 632.573,139.412 633.155,130.146 633.737,141.277 634.32,140.997 634.903,132.476 635.485,130.01 636.068,129.267 636.65,118.448 637.232,123.108 637.815,139.988 638.398,136.588 638.98,126.276 639.563,136.918 640.145,129.395 640.727,127.658 641.31,123.266 641.893,127.787 642.475,129.086 643.057,120.583 643.64,130.241 644.222,142.254 644.805,149.834 645.388,146.581 645.97,137.399 646.552,136.288 647.135,123.307 647.718,119.554 648.3,132.504 648.883,122.341 649.465,143.696 650.047,125.8 650.63,134.927 651.213,125.561 651.795,127.919 652.378,148.574 652.96,152.138 653.542,137.672 654.125,138.122 654.708,126.905 655.29,139.487 655.872,139.17 656.455,147.384 657.037,122.573 657.62,133.56 658.203,127.644 658.785,138.795 659.367,141.808 659.95,151.069 660.532,151.857 661.115,139.313 661.698,142.592 662.28,130.359 662.862,130.462 663.445,134.196 664.028,136.51 664.61,135.592 665.193,121.136 665.775,128.422 666.357,127.963 666.94,158.094 667.523,138.015 668.105,128.568 668.688,129.404 669.27,124.754 669.852,141.681 670.435,136.456 671.018,131.984 671.6,145.773 672.182,120.152 672.765,117.193 673.347,137.616 673.93,147.864 674.513,135.582 675.095,143.357 675.677,145.076 676.26,143.301 676.843,124.406 677.425,124.895 678.008,123.404 678.59,137.635 679.172,119.251 679.755,120.286 680.338,126.943 680.92,134.715 681.503,118.653 682.085,129.474 682.667,132.235 683.25,139.836 683.833,125.944 684.415,129.803 684.997,114.754 685.58,138.378 686.162,130.514 686.745,148.691 687.328,138.413 687.91,129.662 688.492,132.723 689.075,122.328 689.657,114.837 690.24,130.713 690.823,133.278 691.405,137.417 691.987,123.424 692.57,138.607 693.153,127.461 693.735,122.063 694.318,124.634 694.9,135.227 695.482,132.191 696.065,124.824 696.648,135.467 697.23,138.931 697.813,138.411 698.395,141.479 698.977,132.42 699.56,138.238 700.143,130.865 700.725,127.355 701.307,130.544 701.89,122.019 702.472,128.281 703.055,144.766 703.638,129.217 704.22,123.306 704.802,117.949 705.385,136.863 705.968,130.478 706.55,139.748 707.133,141.993 707.715,144.358 708.297,129.039 708.88,119.382 709.463,138.746 710.045,130.362 710.628,135.335 711.21,129.968 711.792,137.164 712.375,117.929 712.958,126.748 713.54,125.822 714.122,123.818 714.705,136.089 715.287,136.573 715.87,116.139 716.453,140.771 717.035,128.001 717.617,128.202 718.2,143.923 718.782,143.494 719.365,135.795 719.948,139.89 720.53,147.482 721.112,153.958 721.695,128.402 722.278,141.309 722.86,136.301 723.443,148.236 724.025,153.016 724.607,118.95 725.19,141.868 725.773,130.555 726.355,140.175 726.938,140.418 727.52,132.635 728.102,115.137 728.685,124.017 729.268,145.743 729.85,124.001 730.432,142.486 731.015,126.344 731.597,125.603 732.18,141.175 732.763,122.723 733.345,136.796 733.927,128.117 734.51,126.53 735.093,143.324 735.675,129.916 736.258,145.452 736.84,147.839 737.422,124.547 738.005,137.427 738.588,119.969 739.17,127.711 739.753,142.202 740.335,138.312 740.917,148.001 741.5,133.397 742.083,140.057 742.665,141.64 743.247,139.297 743.83,146.22 744.412,129.031 744.995,128.536 745.578,123.765 746.16,116.896 746.742,122.972 747.325,158.431 747.907,129.002 748.49,141.503 749.073,137.749 749.655,111.672 750.237,141.68 750.82,157.18 751.403,147.954 751.985,125.384 752.568,130.564 753.15,137.825 753.732,137.898 754.315,140.712 754.898,125.455 755.48,109.38 756.063,129.521 756.645,143.004 757.227,139.577 757.81,131.712 758.393,131.733 758.975,138.409 759.557,137.542 760.14,152.401 760.722,113.948 761.305,138.578 761.888,129.154 762.47,146.884 763.052,134.647 763.635,137.417 764.218,116.435 764.8,119.755 765.383,154.341 765.965,142.467 766.547,126.684 767.13,141.907 767.713,139.342 768.295,124.663 768.878,130.142 769.46,127.795 770.042,125.709 770.625,132.194 771.208,134.044 771.79,129.886 772.372,146.238 772.955,127.766 773.537,134.85 774.12,123.641 774.703,139.144 775.285,150.975 775.867,123.606 776.45,127.156 777.032,129.725 777.615,134.3 778.198,136.142 778.78,123.941 779.362,142.84 779.945,143.434 780.528,145.321 781.11,140.404 781.693,135.977 782.275,134.465 782.857,133.745 783.44,153.2 784.023,139.986 784.605,134.947 785.188,137.206 785.77,135.752 786.352,126.603 786.935,116.562 787.518,127.444 788.1,142.712 788.682,134.014 789.265,145.583 789.847,140.287 790.43,153.576 791.013,139.023 791.595,135.327 792.177,123.08 792.76,140.509 793.343,142.488 793.925,135.47 794.508,137.709 795.09,132.606 795.672,123.44 796.255,127.069 796.838,136.283 797.42,152.285 798.003,134.504 798.585,122.195 799.167,143.372 799.75,136.524 800.333,130.349 800.915,138.742 801.497,128.23 802.08,132.291 802.662,130.853 803.245,114.753 803.828,126.376 804.41,111.427 804.992,132.459 805.575,124.184 806.157,126.309 806.74,138.796 807.323,131.4 807.905,120.061 808.487,132.382 809.07,134.609 809.653,117.536 810.235,111.664 810.818,115.829 811.4,124.996 811.982,123.369 812.565,128.365 813.148,124.746 813.73,149.097 814.313,120.185 814.895,133.488 815.477,136.864 816.06,135.612 816.643,137.829 817.225,147.389 817.807,153.549 818.39,137.186 818.972,155.026 819.555,143.972 820.138,142.283 820.72,132.094 821.302,130.621 821.885,120.142 822.468,113.011 823.05,135.695 823.633,126.176 824.215,135.003 824.797,138.256 825.38,132.938 825.963,133.684 826.545,129.984 827.128,129.762 827.71,132.01 828.292,132.07 828.875,143.758 829.458,158.366 830.04,144.449 830.622,130.14 831.205,151.893 831.787,140.729 832.37,130.613 832.953,141.078 833.535,128.745 834.117,132.233 834.7,126.142 835.282,140.452 835.865,138.824 836.448,128.862 837.03,120.691 837.612,144.382 838.195,123.024 838.778,124.652 839.36,142.859 839.943,136.084 840.525,142.515 841.107,134.41 841.69,153.583 842.273,141.034 842.855,123.966 843.438,115.346 844.02,122.217 844.602,133.879 845.185,126.427 845.768,136.104 846.35,131.566 846.932,138.143 847.515,147.11 848.097,143.552 848.68,141.589 849.263,127.746 849.845,137.165 850.427,137.346 851.01,138.39 851.593,135.219 852.175,135.417 852.758,143.576 853.34,132.797 853.922,135.551 854.505,139.257 855.088,131.472 855.67,132.486 856.253,137.06 856.835,147.013 857.417,143.184 " />
</g>

<g fill="#ffffff" fill-opacity="1" stroke="none" transform="matrix(7.5e-05,0,0,7.5e-05,0,0)"
font-family="Times New Roman" font-size="26" font-weight="400" font-style="normal" 
>
<path vector-effect="none" fill-rule="evenodd" d="M8.81e+06,165000 L8.81e+06,2.485e+06 L1.113e+07,2.485e+06 L1.113e+07,165000 L8.81e+06,165000"/>
</g>

<g fill="#212121" fill-opacity="1" stroke="#212121" stroke-opacity="1" stroke-width="2" stroke-linecap="square" stroke-linejoin="round" transform="matrix(0.75,0,0,0.75,0,0)"
font-family="Times New Roman" font-size="26" font-weight="400" font-style="normal" 
>
<polyline fill="none" vector-effect="none" points="881,248.5 1113,248.5 " />
<polyline fill="none" vector-effect="none" points="881,16.5 1113,16.5 " />
<polyline fill="none" vector-effect="none" points="881,248.5 881,16.5 " />
<polyline fill="none" vector-effect="none" points="1113,248.5 1113,16.5 " />
</g>

<g fill="none" stroke="#ffb25a" stroke-opacity="1" stroke-width="4" stroke-linecap="butt" stroke-linejoin="round" transform="matrix(0.75,0,0,0.75,0,0)"
font-family="Times New Roman" font-size="26" font-weight="400" font-style="normal" 
>
<polyline fill="none" vector-effect="none" points="881.58,97.4355 882.16,107.869 882.74,126.529 883.32,129.543 883.9,123.102 884.48,126.896 885.06,145.807 885.64,128.759 886.22,125.452 886.8,116.078 887.38,133.107 887.96,123.004 888.54,99.779 889.12,119.534 889.7,142.495 890.28,142.778 890.86,139.176 891.44,116.296 892.02,126.441 892.6,123.037 893.18,153.333 893.76,142.507 894.34,115.185 894.92,148 895.5,140.459 896.08,113.09 896.66,132.128 897.24,142.488 897.82,125.999 898.4,129.265 898.98,134.512 899.56,139.548 900.14,133.797 900.72,126.45 901.3,149.274 901.88,139.05 902.46,126.541 903.04,123.507 903.62,143.927 904.2,147.275 904.78,139.99 905.36,128.623 905.94,103.157 906.52,126.784 907.1,154.207 907.68,153.085 908.26,131.698 908.84,118.922 909.42,131.271 910,157.419 910.58,140.83 911.16,120.335 911.74,138.431 912.32,144.044 912.9,124.255 913.48,157.645 914.06,119.424 914.64,138.45 915.22,132.021 915.8,155.756 916.38,139.704 916.96,154.692 917.54,124.177 918.12,134.922 918.7,133.816 919.28,119.273 919.86,155.896 920.44,131.929 921.02,134.45 921.6,125.65 922.18,101.783 922.76,119.806 923.34,143.473 923.92,124.865 924.5,154.995 925.08,130.228 925.66,124.042 926.24,135.436 926.82,135.946 927.4,124.75 927.98,131.082 928.56,139.294 929.14,149.048 929.72,149.137 930.3,139.869 930.88,154.47 931.46,136.187 932.04,118.022 932.62,144.155 933.2,145.404 933.78,132.464 934.36,144.14 934.94,159.759 935.52,124.438 936.1,124.612 936.68,137.45 937.26,139.756 937.84,127.454 938.42,132.013 939,145.978 939.58,144.728 940.16,142.389 940.74,131.026 941.32,122.201 941.9,140.166 942.48,126.122 943.06,120.657 943.64,136.902 944.22,108.398 944.8,183.388 945.38,142.849 945.96,120.507 946.54,133.742 947.12,129.202 947.7,128.234 948.28,146.409 948.86,126.614 949.44,146.273 950.02,142.619 950.6,139.105 951.18,140.274 951.76,112.656 952.34,143.759 952.92,130.953 953.5,137.814 954.08,128.776 954.66,141.821 955.24,142.951 955.82,150.061 956.4,144.339 956.98,141.679 957.56,145.464 958.14,141.071 958.72,120.167 959.3,137.633 959.88,131.965 960.46,132.888 961.04,146.652 961.62,125.307 962.2,148.151 962.78,156.037 963.36,145.727 963.94,123.666 964.52,138.287 965.1,106.183 965.68,110.429 966.26,116.564 966.84,103.904 967.42,119.101 968,125.65 968.58,133.789 969.16,117.825 969.74,137.124 970.32,126.245 970.9,119.186 971.48,118.21 972.06,103.896 972.64,144.215 973.22,144.761 973.8,167.441 974.38,145.315 974.96,133.358 975.54,137.782 976.12,125.552 976.7,117.735 977.28,144.366 977.86,168.068 978.44,152.191 979.02,139.504 979.6,134.865 980.18,120.731 980.76,127.973 981.34,144.497 981.92,133.372 982.5,111.025 983.08,135.686 983.66,143.562 984.24,120.192 984.82,135.587 985.4,147.215 985.98,139.235 986.56,151.967 987.14,122.1 987.72,121.006 988.3,133.531 988.88,152.66 989.46,137.825 990.04,128.416 990.62,115.835 991.2,136.248 991.78,107.64 992.36,104.872 992.94,140.839 993.52,132.016 994.1,136.003 994.68,130.567 995.26,113.015 995.84,123.618 996.42,155.059 997,115.188 997.58,127.573 998.16,124.086 998.74,129.726 999.32,128.346 999.9,97.6753 1000.48,105.916 1001.06,120.014 1001.64,142.212 1002.22,136.05 1002.8,121.581 1003.38,124.921 1003.96,121.051 1004.54,147.518 1005.12,126.979 1005.7,136.162 1006.28,124.504 1006.86,143.123 1007.44,116.971 1008.02,94.5676 1008.6,142.723 1009.18,113.692 1009.76,137.489 1010.34,132.944 1010.92,120.031 1011.5,116.886 1012.08,125.889 1012.66,144.332 1013.24,135.667 1013.82,120.617 1014.4,121.752 1014.98,118.646 1015.56,113.332 1016.14,127.702 1016.72,138.977 1017.3,125.264 1017.88,127.919 1018.46,130.593 1019.04,139.14 1019.62,115.41 1020.2,111.41 1020.78,153.736 1021.36,118.509 1021.94,122.533 1022.52,134.391 1023.1,121.927 1023.68,130.244 1024.26,133.943 1024.84,131.625 1025.42,154.672 1026,97.541 1026.58,118.902 1027.16,111.379 1027.74,131.815 1028.32,140.004 1028.9,107.711 1029.48,121.099 1030.06,111.224 1030.64,128.465 1031.22,129.906 1031.8,137.647 1032.38,140.497 1032.96,136.807 1033.54,120.006 1034.12,113.083 1034.7,108.188 1035.28,140.703 1035.86,128.614 1036.44,130.776 1037.02,122.898 1037.6,146.164 1038.18,112.814 1038.76,138.816 1039.34,121.698 1039.92,144.507 1040.5,146.259 1041.08,162.717 1041.66,149.286 1042.24,141.615 1042.82,125.116 1043.4,114.869 1043.98,106.259 1044.56,129.72 1045.14,135.914 1045.72,124.132 1046.3,117.107 1046.88,135.621 1047.46,122.786 1048.04,94.4208 1048.62,142.433 1049.2,104.909 1049.78,129.743 1050.36,140.324 1050.94,102.309 1051.52,115.205 1052.1,141.918 1052.68,121.366 1053.26,128.437 1053.84,138.379 1054.42,120.545 1055,116.32 1055.58,129.279 1056.16,131.91 1056.74,126.509 1057.32,143.923 1057.9,130.918 1058.48,122.51 1059.06,120.027 1059.64,121.093 1060.22,149.923 1060.8,109.251 1061.38,148.102 1061.96,140.621 1062.54,133.005 1063.12,134.988 1063.7,167.007 1064.28,141.03 1064.86,128.752 1065.44,128.06 1066.02,145.893 1066.6,124.118 1067.18,148.486 1067.76,109.456 1068.34,157.853 1068.92,148.283 1069.5,143.223 1070.08,124.926 1070.66,126.886 1071.24,153.133 1071.82,148.226 1072.4,127.362 1072.98,119.078 1073.56,147.52 1074.14,121.55 1074.72,126.512 1075.3,127.111 1075.88,133.652 1076.46,124.426 1077.04,144.462 1077.62,124.274 1078.2,155.06 1078.78,122.862 1079.36,151.875 1079.94,147.246 1080.52,122.198 1081.1,147.833 1081.68,135.854 1082.26,125.626 1082.84,132.011 1083.42,146.186 1084,134.094 1084.58,136.873 1085.16,133.839 1085.74,120.245 1086.32,130.599 1086.9,140.585 1087.48,112.356 1088.06,121.023 1088.64,130.449 1089.22,119.765 1089.8,133.399 1090.38,130.006 1090.96,112.541 1091.54,123.782 1092.12,145.295 1092.7,124.505 1093.28,127.152 1093.86,119.84 1094.44,126.379 1095.02,128.316 1095.6,126.36 1096.18,136.351 1096.76,144.781 1097.34,135.223 1097.92,119.873 1098.5,148.961 1099.08,136.329 1099.66,117.69 1100.24,124.589 1100.82,103.389 1101.4,142.718 1101.98,131.965 1102.56,129.802 1103.14,111.325 1103.72,132.394 1104.3,135.785 1104.88,138 1105.46,138.616 1106.04,132.77 1106.62,132.71 1107.2,129.223 1107.78,127.597 1108.36,137.761 1108.94,122.614 1109.52,127.517 1110.1,130.908 1110.68,128.001 1111.26,152.386 1111.84,124.415 1112.42,128.793 " />
</g>

<g fill="none" stroke="#2cd35f" stroke-opacity="1" stroke-width="4" stroke-linecap="butt" stroke-linejoin="round" transform="matrix(0.75,0,0,0.75,0,0)"
font-family="Times New Roman" font-size="26" font-weight="400" font-style="normal" 
>
<polyline fill="none" vector-effect="none" points="881.58,142.203 882.16,121.811 882.74,121.859 883.32,131.582 883.9,128.259 884.48,127.921 885.06,136.133 885.64,138.175 886.22,134.488 886.8,131.012 887.38,174.679 887.96,165.796 888.54,143.463 889.12,143.422 889.7,115.023 890.28,113.507 890.86,95.8305 891.44,100.727 892.02,91.0157 892.6,85.3886 893.18,98.8017 893.76,146.699 894.34,144.789 894.92,148.291 895.5,132.174 896.08,121.843 896.66,131.934 897.24,140.305 897.82,130.345 898.4,141.298 898.98,124.114 899.56,110.259 900.14,133.392 900.72,135.483 901.3,157.843 901.88,140.81 902.46,120.404 903.04,136.465 903.62,114.939 904.2,117.021 904.78,116.701 905.36,122.651 905.94,132.843 906.52,114.108 907.1,112.383 907.68,140.908 908.26,104.638 908.84,137.529 909.42,137.45 910,105.818 910.58,115.041 911.16,137.107 911.74,132.288 912.32,128.709 912.9,112.596 913.48,125.315 914.06,126.02 914.64,201.245 915.22,147.551 915.8,154.99 916.38,133.727 916.96,155.041 917.54,130.711 918.12,138.006 918.7,138.045 919.28,130.23 919.86,157.028 920.44,153.787 921.02,152.589 921.6,118.921 922.18,127.313 922.76,140.892 923.34,108.612 923.92,120.02 924.5,137.591 925.08,139.13 925.66,132.281 926.24,142.837 926.82,145.899 927.4,125.185 927.98,125.16 928.56,129.536 929.14,153.769 929.72,124.647 930.3,105.869 930.88,133.738 931.46,124.364 932.04,140.038 932.62,144.804 933.2,163.286 933.78,152.498 934.36,154.449 934.94,126.454 935.52,133.756 936.1,158.903 936.68,125.647 937.26,121.555 937.84,115.564 938.42,120.612 939,108.004 939.58,107.692 940.16,111.261 940.74,98.1826 941.32,126.55 941.9,144.043 942.48,148.521 943.06,156.962 943.64,127.52 944.22,146.939 944.8,156.666 945.38,164.719 945.96,140.125 946.54,129.745 947.12,111.581 947.7,133.92 948.28,149.803 948.86,152.23 949.44,142.12 950.02,118.164 950.6,131.801 951.18,108.318 951.76,118.802 952.34,139.238 952.92,136.592 953.5,130.112 954.08,116.344 954.66,113.047 955.24,118.836 955.82,118.147 956.4,136.805 956.98,103.189 957.56,141.584 958.14,154.429 958.72,146.056 959.3,115.671 959.88,118.372 960.46,130.274 961.04,135.447 961.62,129.127 962.2,116.912 962.78,142.179 963.36,143.723 963.94,147.306 964.52,155.224 965.1,145.813 965.68,126.251 966.26,120.99 966.84,127.985 967.42,140.259 968,130.857 968.58,94.4952 969.16,99.7455 969.74,122.172 970.32,123.243 970.9,106.139 971.48,102.474 972.06,142.71 972.64,97.7557 973.22,115.04 973.8,117.977 974.38,125.498 974.96,146.887 975.54,123.848 976.12,150.39 976.7,128.27 977.28,117.026 977.86,128.741 978.44,123.966 979.02,124.961 979.6,132.205 980.18,147.115 980.76,170.528 981.34,135.556 981.92,143.456 982.5,154.387 983.08,120.973 983.66,119.065 984.24,113.819 984.82,116.706 985.4,146.156 985.98,131.821 986.56,122.098 987.14,159.306 987.72,136.672 988.3,137.482 988.88,158.894 989.46,156.291 990.04,140.04 990.62,170.652 991.2,142.127 991.78,111.16 992.36,161.083 992.94,120.55 993.52,125.14 994.1,104.034 994.68,121.703 995.26,121.914 995.84,129.35 996.42,123.267 997,146.959 997.58,121.187 998.16,119.091 998.74,108.965 999.32,113.576 999.9,139.755 1000.48,129.451 1001.06,145.109 1001.64,140.004 1002.22,139.393 1002.8,158.685 1003.38,147.973 1003.96,124.193 1004.54,123.559 1005.12,111.687 1005.7,136.163 1006.28,153.345 1006.86,115.751 1007.44,114.007 1008.02,146.076 1008.6,141.006 1009.18,155.93 1009.76,146.691 1010.34,135.421 1010.92,133.869 1011.5,148.596 1012.08,167.427 1012.66,147.058 1013.24,136.322 1013.82,148.01 1014.4,150.854 1014.98,130.172 1015.56,125.8 1016.14,140.021 1016.72,155.494 1017.3,122.055 1017.88,119.8 1018.46,147.806 1019.04,144.831 1019.62,125 1020.2,124.922 1020.78,117.445 1021.36,139.09 1021.94,152.484 1022.52,155.04 1023.1,131.193 1023.68,140.771 1024.26,125.461 1024.84,144.312 1025.42,142.675 1026,156.514 1026.58,116.383 1027.16,125.858 1027.74,141.523 1028.32,116.919 1028.9,113.751 1029.48,146.736 1030.06,129.919 1030.64,140.293 1031.22,132.994 1031.8,146.313 1032.38,123.402 1032.96,147.981 1033.54,142.366 1034.12,147.151 1034.7,123.138 1035.28,137.233 1035.86,113.809 1036.44,141.042 1037.02,124.878 1037.6,128.857 1038.18,149.982 1038.76,125.541 1039.34,128.395 1039.92,117.423 1040.5,136.654 1041.08,148.327 1041.66,151.02 1042.24,163.598 1042.82,132.165 1043.4,130.801 1043.98,119.177 1044.56,111.588 1045.14,136.879 1045.72,123.251 1046.3,135.91 1046.88,154.98 1047.46,135.185 1048.04,159.765 1048.62,149.793 1049.2,141.336 1049.78,136.918 1050.36,133.101 1050.94,122.396 1051.52,118.023 1052.1,129.066 1052.68,146.676 1053.26,110.628 1053.84,104.506 1054.42,137.028 1055,134.114 1055.58,133.965 1056.16,101.43 1056.74,137.513 1057.32,122.459 1057.9,143.106 1058.48,146.571 1059.06,139.775 1059.64,131.514 1060.22,149.416 1060.8,124.75 1061.38,109.638 1061.96,127.629 1062.54,120.389 1063.12,98.5235 1063.7,138.569 1064.28,160.677 1064.86,132.387 1065.44,141.842 1066.02,143.792 1066.6,161.308 1067.18,132.256 1067.76,116.408 1068.34,94.472 1068.92,112.749 1069.5,118.411 1070.08,138.619 1070.66,129.598 1071.24,140.751 1071.82,122.378 1072.4,139.175 1072.98,143.314 1073.56,154.049 1074.14,116.033 1074.72,134.084 1075.3,130.221 1075.88,99.659 1076.46,108.862 1077.04,113.625 1077.62,140.699 1078.2,115.72 1078.78,107.097 1079.36,146.985 1079.94,122.233 1080.52,150.499 1081.1,140.453 1081.68,142.658 1082.26,133.704 1082.84,136.674 1083.42,106.89 1084,129.761 1084.58,141.225 1085.16,149.324 1085.74,130.836 1086.32,156.816 1086.9,127.603 1087.48,109.536 1088.06,134.575 1088.64,138.148 1089.22,126.21 1089.8,140.744 1090.38,150.757 1090.96,143.836 1091.54,134.106 1092.12,101.211 1092.7,128.757 1093.28,140.671 1093.86,134.459 1094.44,98.9566 1095.02,119.914 1095.6,127.281 1096.18,142.099 1096.76,150.727 1097.34,163.006 1097.92,159.946 1098.5,131.358 1099.08,145.063 1099.66,143.141 1100.24,144.412 1100.82,124.408 1101.4,136.249 1101.98,149.442 1102.56,150.871 1103.14,98.31 1103.72,112.472 1104.3,121.67 1104.88,126.592 1105.46,147.547 1106.04,156.505 1106.62,114.358 1107.2,137.746 1107.78,149.313 1108.36,153.222 1108.94,127.156 1109.52,129.997 1110.1,136.115 1110.68,121.588 1111.26,118.668 1111.84,116.746 1112.42,109.436 " />
</g>

<g fill="#ffffff" fill-opacity="1" stroke="none" transform="matrix(7.5e-05,0,0,7.5e-05,0,0)"
font-family="Times New Roman" font-size="26" font-weight="400" font-style="normal" 
>
<path vector-effect="none" fill-rule="evenodd" d="M1.137e+07,165000 L1.137e+07,2.485e+06 L1.369e+07,2.485e+06 L1.369e+07,165000 L1.137e+07,165000"/>
</g>

<g fill="#212121" fill-opacity="1" stroke="#212121" stroke-opacity="1" stroke-width="2" stroke-linecap="square" stroke-linejoin="round" transform="matrix(0.75,0,0,0.75,0,0)"
font-family="Times New Roman" font-size="26" font-weight="400" font-style="normal" 
>
<polyline fill="none" vector-effect="none" points="1137,248.5 1369,248.5 " />
<polyline fill="none" vector-effect="none" points="1137,16.5 1369,16.5 " />
<polyline fill="none" vector-effect="none" points="1137,248.5 1137,16.5 " />
<polyline fill="none" vector-effect="none" points="1369,248.5 1369,16.5 " />
</g>

<g fill="none" stroke="#ffb25a" stroke-opacity="1" stroke-width="4" stroke-linecap="butt" stroke-linejoin="round" transform="matrix(0.75,0,0,0.75,0,0)"
font-family="Times New Roman" font-size="26" font-weight="400" font-style="normal" 
>
<polyline fill="none" vector-effect="none" points="1137.58,131.374 1138.16,154.58 1138.74,139.873 1139.32,124.258 1139.9,133.793 1140.48,137.505 1141.06,168.185 1141.64,154.979 1142.22,162.559 1142.8,187.515 1143.38,153.863 1143.96,132.497 1144.54,127.012 1145.12,131.239 1145.7,128.685 1146.28,157.73 1146.86,139.935 1147.44,140.137 1148.02,169.161 1148.6,163.276 1149.18,143.013 1149.76,121.84 1150.34,144.962 1150.92,173.54 1151.5,122.508 1152.08,107.148 1152.66,182.173 1153.24,146.15 1153.82,160.866 1154.4,181.64 1154.98,181.293 1155.56,144.691 1156.14,159.578 1156.72,131.115 1157.3,132.331 1157.88,140.436 1158.46,166.399 1159.04,159.316 1159.62,123.767 1160.2,115.858 1160.78,153.215 1161.36,149.486 1161.94,127.784 1162.52,159.743 1163.1,145.355 1163.68,128.069 1164.26,132.665 1164.84,150.899 1165.42,157.894 1166,92.5499 1166.58,149.355 1167.16,138.792 1167.74,154.18 1168.32,116.134 1168.9,133.637 1169.48,122.131 1170.06,120.007 1170.64,128.302 1171.22,122.812 1171.8,150.036 1172.38,95.4769 1172.96,104.82 1173.54,136.621 1174.12,146.203 1174.7,105.278 1175.28,144.081 1175.86,179.421 1176.44,151.978 1177.02,123.883 1177.6,142.165 1178.18,138.153 1178.76,155.85 1179.34,121.234 1179.92,110.585 1180.5,77.7576 1181.08,144.359 1181.66,150.812 1182.24,143.548 1182.82,140.356 1183.4,156.353 1183.98,151.504 1184.56,157.052 1185.14,124.728 1185.72,133.517 1186.3,141.371 1186.88,126.055 1187.46,133.831 1188.04,83.7873 1188.62,110.6 1189.2,122.728 1189.78,146.961 1190.36,160.127 1190.94,152.84 1191.52,114.676 1192.1,127.7 1192.68,111.758 1193.26,163.68 1193.84,148.186 1194.42,158.172 1195,129.485 1195.58,170.653 1196.16,167.482 1196.74,165.291 1197.32,126.418 1197.9,152.496 1198.48,148.657 1199.06,139.912 1199.64,111.894 1200.22,98.3399 1200.8,94.3172 1201.38,124.009 1201.96,122.245 1202.54,146.294 1203.12,136.173 1203.7,167.324 1204.28,148.557 1204.86,167.793 1205.44,178.517 1206.02,171.586 1206.6,138.315 1207.18,115.557 1207.76,132.105 1208.34,140.374 1208.92,154.014 1209.5,166.469 1210.08,158.679 1210.66,142.127 1211.24,131.769 1211.82,151.008 1212.4,147.587 1212.98,159.475 1213.56,121.489 1214.14,131.929 1214.72,115.21 1215.3,103.924 1215.88,103.644 1216.46,121.32 1217.04,104.633 1217.62,121.876 1218.2,157.245 1218.78,115.051 1219.36,120.492 1219.94,125.595 1220.52,99.2025 1221.1,144.109 1221.68,139.259 1222.26,142.744 1222.84,127.19 1223.42,141.068 1224,120.864 1224.58,156.945 1225.16,131.764 1225.74,166.582 1226.32,124.187 1226.9,119.785 1227.48,120.514 1228.06,84.5789 1228.64,122.467 1229.22,137.142 1229.8,144.782 1230.38,90.8694 1230.96,134.088 1231.54,120.955 1232.12,164.22 1232.7,138.422 1233.28,130.583 1233.86,141.216 1234.44,138.729 1235.02,165.107 1235.6,126.915 1236.18,129.638 1236.76,108.413 1237.34,98.9319 1237.92,67.3613 1238.5,98.0723 1239.08,112.15 1239.66,110.802 1240.24,131.307 1240.82,152.723 1241.4,117.085 1241.98,124.184 1242.56,122.657 1243.14,122.518 1243.72,93.6505 1244.3,88.6634 1244.88,47.4302 1245.46,85.7236 1246.04,83.994 1246.62,142.229 1247.2,135.283 1247.78,136.303 1248.36,113.784 1248.94,127.233 1249.52,106.116 1250.1,134.08 1250.68,143.844 1251.26,131.934 1251.84,109.337 1252.42,103.933 1253,113.767 1253.58,126.522 1254.16,104.16 1254.74,110.463 1255.32,88.7086 1255.9,72.2532 1256.48,102.59 1257.06,116.025 1257.64,134.123 1258.22,95.7595 1258.8,95.9003 1259.38,105.222 1259.96,119.151 1260.54,126.635 1261.12,132.048 1261.7,81.8244 1262.28,100.365 1262.86,95.4477 1263.44,126.34 1264.02,164.631 1264.6,135.619 1265.18,118.145 1265.76,123.001 1266.34,130.068 1266.92,110.675 1267.5,117.841 1268.08,107.04 1268.66,80.7211 1269.24,92.1316 1269.82,119.009 1270.4,125.629 1270.98,118.729 1271.56,120.066 1272.14,120.211 1272.72,91.7378 1273.3,108.123 1273.88,112.324 1274.46,146.743 1275.04,132.83 1275.62,170.377 1276.2,119.14 1276.78,168.104 1277.36,144.187 1277.94,154.038 1278.52,178.829 1279.1,155.598 1279.68,148.53 1280.26,113.919 1280.84,119.989 1281.42,163.577 1282,146.499 1282.58,151.579 1283.16,149.974 1283.74,103.979 1284.32,75.0497 1284.9,111.399 1285.48,167.181 1286.06,156.77 1286.64,124.007 1287.22,141.317 1287.8,120.409 1288.38,138.542 1288.96,138.603 1289.54,107.551 1290.12,148.22 1290.7,121.792 1291.28,120.222 1291.86,119.369 1292.44,122.764 1293.02,161.469 1293.6,139.148 1294.18,112.787 1294.76,169.422 1295.34,168.127 1295.92,163.027 1296.5,160.017 1297.08,149.224 1297.66,112.319 1298.24,159.997 1298.82,142.003 1299.4,134.877 1299.98,143.271 1300.56,124.664 1301.14,127.348 1301.72,94.3977 1302.3,105.245 1302.88,153.215 1303.46,176.841 1304.04,119.694 1304.62,149.906 1305.2,145.372 1305.78,124.016 1306.36,124.638 1306.94,90.056 1307.52,89.2953 1308.1,98.6129 1308.68,152.85 1309.26,83.2219 1309.84,139.402 1310.42,131.532 1311,90.731 1311.58,100.614 1312.16,109.279 1312.74,90.0024 1313.32,135.909 1313.9,162.478 1314.48,158.736 1315.06,135.149 1315.64,131.084 1316.22,105.066 1316.8,98.3028 1317.38,88.4537 1317.96,111.183 1318.54,156.538 1319.12,133.016 1319.7,141.182 1320.28,131.863 1320.86,134.45 1321.44,159.584 1322.02,151.357 1322.6,168.632 1323.18,143.203 1323.76,132.788 1324.34,107.074 1324.92,107.987 1325.5,94.7625 1326.08,112.844 1326.66,126.99 1327.24,98.5579 1327.82,104.083 1328.4,113.396 1328.98,125.31 1329.56,143.202 1330.14,165.999 1330.72,136.842 1331.3,135.399 1331.88,157.129 1332.46,177.714 1333.04,208.361 1333.62,152.546 1334.2,176.828 1334.78,174.182 1335.36,161.056 1335.94,138.368 1336.52,165.166 1337.1,132.331 1337.68,98.7076 1338.26,130.886 1338.84,108.32 1339.42,167.283 1340,137.728 1340.58,110.235 1341.16,127.753 1341.74,130.467 1342.32,173.314 1342.9,124.535 1343.48,82.6457 1344.06,100.797 1344.64,128.994 1345.22,139.803 1345.8,121.078 1346.38,86.2891 1346.96,154.154 1347.54,144.337 1348.12,148.714 1348.7,168.396 1349.28,162.161 1349.86,162.709 1350.44,97.7269 1351.02,117.11 1351.6,118.277 1352.18,146.838 1352.76,106.937 1353.34,130.908 1353.92,125.796 1354.5,103.799 1355.08,114.536 1355.66,143.557 1356.24,97.128 1356.82,102.429 1357.4,137.044 1357.98,148.208 1358.56,146.057 1359.14,104.469 1359.72,142.861 1360.3,123.667 1360.88,144.751 1361.46,115.589 1362.04,130.751 1362.62,146.373 1363.2,130.072 1363.78,134.168 1364.36,123.556 1364.94,134.3 1365.52,154.816 1366.1,149.976 1366.68,154.116 1367.26,133.851 1367.84,151.974 1368.42,142.403 " />
</g>

<g fill="none" stroke="#2cd35f" stroke-opacity="1" stroke-width="4" stroke-linecap="butt" stroke-linejoin="round" transform="matrix(0.75,0,0,0.75,0,0)"
font-family="Times New Roman" font-size="26" font-weight="400" font-style="normal" 
>
<polyline fill="none" vector-effect="none" points="1137.58,128.994 1138.16,185.19 1138.74,125.103 1139.32,128.643 1139.9,145.2 1140.48,157.398 1141.06,153.094 1141.64,134.424 1142.22,135.357 1142.8,137.201 1143.38,169.705 1143.96,121.253 1144.54,98.2867 1145.12,168.799 1145.7,153.583 1146.28,109.769 1146.86,114.366 1147.44,85.8605 1148.02,112.493 1148.6,92.9792 1149.18,114.485 1149.76,146.992 1150.34,143.042 1150.92,170.044 1151.5,189.799 1152.08,184.808 1152.66,186.695 1153.24,148.216 1153.82,105.555 1154.4,96.8797 1154.98,88.7337 1155.56,111.347 1156.14,113.115 1156.72,118.601 1157.3,126.663 1157.88,146.786 1158.46,136.109 1159.04,149.405 1159.62,146.598 1160.2,174.967 1160.78,197.593 1161.36,133.986 1161.94,147.478 1162.52,107.698 1163.1,126.895 1163.68,115.369 1164.26,164.379 1164.84,136.154 1165.42,125.47 1166,159.378 1166.58,130.654 1167.16,142.859 1167.74,134 1168.32,128.316 1168.9,118.872 1169.48,90.466 1170.06,79.0843 1170.64,138.61 1171.22,148.04 1171.8,191.612 1172.38,147.948 1172.96,134.598 1173.54,154.106 1174.12,191.144 1174.7,161.945 1175.28,184.124 1175.86,120.712 1176.44,157.56 1177.02,125.624 1177.6,144.541 1178.18,142.348 1178.76,135.664 1179.34,149.274 1179.92,130.17 1180.5,102.638 1181.08,123.358 1181.66,132.756 1182.24,191.525 1182.82,186.193 1183.4,173.252 1183.98,185.467 1184.56,193.166 1185.14,173.1 1185.72,143.698 1186.3,123.638 1186.88,146.464 1187.46,115.929 1188.04,108.989 1188.62,138.602 1189.2,122.31 1189.78,105.301 1190.36,147.962 1190.94,130.234 1191.52,138.934 1192.1,97.8239 1192.68,114.879 1193.26,118.703 1193.84,125.514 1194.42,168.959 1195,167.906 1195.58,154.116 1196.16,154.379 1196.74,147.209 1197.32,129.069 1197.9,101.521 1198.48,163.829 1199.06,159.644 1199.64,138.432 1200.22,111.282 1200.8,166.541 1201.38,149.447 1201.96,152.064 1202.54,152.317 1203.12,139.608 1203.7,108.574 1204.28,161.888 1204.86,144.463 1205.44,145.597 1206.02,194.683 1206.6,212.286 1207.18,220.441 1207.76,177.848 1208.34,111.996 1208.92,109.725 1209.5,94.7827 1210.08,150.172 1210.66,152.25 1211.24,165.656 1211.82,138.072 1212.4,170.758 1212.98,138.111 1213.56,129.354 1214.14,111.095 1214.72,129.076 1215.3,147.325 1215.88,135.224 1216.46,166.703 1217.04,164.68 1217.62,145.551 1218.2,134.323 1218.78,128.63 1219.36,153.406 1219.94,114.925 1220.52,87.146 1221.1,117.084 1221.68,130.401 1222.26,121.965 1222.84,124.109 1223.42,125.492 1224,150.778 1224.58,114.443 1225.16,155.096 1225.74,190.069 1226.32,157.478 1226.9,183.348 1227.48,177.395 1228.06,146.101 1228.64,151.156 1229.22,123.23 1229.8,118.137 1230.38,129.915 1230.96,195.208 1231.54,131.882 1232.12,146.503 1232.7,114.666 1233.28,159.996 1233.86,132.31 1234.44,131.401 1235.02,170.045 1235.6,151.011 1236.18,122.946 1236.76,131.331 1237.34,131.101 1237.92,143.795 1238.5,143.764 1239.08,125.946 1239.66,136.728 1240.24,142.096 1240.82,131.297 1241.4,122.782 1241.98,117.976 1242.56,135.839 1243.14,130.681 1243.72,116.959 1244.3,115.421 1244.88,171.298 1245.46,147.994 1246.04,151.306 1246.62,193.306 1247.2,146.984 1247.78,184.322 1248.36,179.132 1248.94,183.796 1249.52,128.655 1250.1,143.967 1250.68,111.795 1251.26,141.174 1251.84,131.122 1252.42,128.802 1253,144.167 1253.58,119.523 1254.16,180.36 1254.74,139.056 1255.32,134.817 1255.9,178.287 1256.48,177.331 1257.06,168.048 1257.64,183.259 1258.22,99.7886 1258.8,160.136 1259.38,169.685 1259.96,148.699 1260.54,114.617 1261.12,138.927 1261.7,140.306 1262.28,139.134 1262.86,142.041 1263.44,145.273 1264.02,155.151 1264.6,144.521 1265.18,183.426 1265.76,143.762 1266.34,93.1485 1266.92,94.5578 1267.5,105.076 1268.08,117.531 1268.66,113.757 1269.24,146.056 1269.82,132.039 1270.4,114.363 1270.98,139.211 1271.56,139.558 1272.14,144.345 1272.72,130.378 1273.3,99.6766 1273.88,138.262 1274.46,120.946 1275.04,116.576 1275.62,123.276 1276.2,99.5104 1276.78,113.068 1277.36,135.073 1277.94,110.372 1278.52,118.754 1279.1,101.559 1279.68,109.162 1280.26,130.844 1280.84,137.385 1281.42,133.267 1282,147.913 1282.58,126.241 1283.16,122.142 1283.74,73.0975 1284.32,132.95 1284.9,113.203 1285.48,124.409 1286.06,119.175 1286.64,111.452 1287.22,121.259 1287.8,123.563 1288.38,113.535 1288.96,158.964 1289.54,186.077 1290.12,145.055 1290.7,138.144 1291.28,146.539 1291.86,149.523 1292.44,110.298 1293.02,148.736 1293.6,151.219 1294.18,103.852 1294.76,77.1274 1295.34,115.904 1295.92,112.133 1296.5,105.904 1297.08,102.05 1297.66,99.037 1298.24,126.378 1298.82,120.77 1299.4,104.713 1299.98,78.1589 1300.56,97.4034 1301.14,104.829 1301.72,108.104 1302.3,62.2445 1302.88,117.03 1303.46,135.068 1304.04,129.568 1304.62,122.397 1305.2,131.357 1305.78,116.704 1306.36,100.033 1306.94,114.597 1307.52,80.1104 1308.1,97.4478 1308.68,124.956 1309.26,125.282 1309.84,142.78 1310.42,161.228 1311,138.8 1311.58,130.057 1312.16,126.104 1312.74,122.05 1313.32,134.369 1313.9,136.396 1314.48,129.851 1315.06,99.344 1315.64,103.676 1316.22,115.678 1316.8,134.099 1317.38,128.927 1317.96,122.931 1318.54,149.054 1319.12,122.15 1319.7,103.236 1320.28,136.755 1320.86,144.941 1321.44,134.692 1322.02,130.353 1322.6,151.455 1323.18,135.992 1323.76,110.522 1324.34,127.619 1324.92,157.403 1325.5,155.404 1326.08,130.671 1326.66,145.783 1327.24,126.029 1327.82,193.312 1328.4,162.256 1328.98,177.594 1329.56,193.66 1330.14,116.132 1330.72,157.421 1331.3,141.22 1331.88,150.322 1332.46,130.499 1333.04,163.511 1333.62,97.4418 1334.2,149.091 1334.78,144.136 1335.36,121.798 1335.94,131.059 1336.52,142.507 1337.1,112.849 1337.68,108.633 1338.26,93.2064 1338.84,115.243 1339.42,104.04 1340,152.429 1340.58,107.302 1341.16,138.54 1341.74,143.029 1342.32,135.617 1342.9,125.486 1343.48,131.817 1344.06,111.329 1344.64,122.172 1345.22,123.564 1345.8,159.276 1346.38,117.32 1346.96,112.626 1347.54,127.125 1348.12,109.836 1348.7,127.001 1349.28,89.9934 1349.86,112.078 1350.44,99.9737 1351.02,116.661 1351.6,115.284 1352.18,101.752 1352.76,165.813 1353.34,143.787 1353.92,129.741 1354.5,96.4542 1355.08,117.141 1355.66,122.294 1356.24,113.533 1356.82,135.906 1357.4,111.678 1357.98,109.681 1358.56,144.294 1359.14,117.462 1359.72,124.449 1360.3,119.289 1360.88,117.922 1361.46,104.538 1362.04,84.1774 1362.62,106.22 1363.2,125.454 1363.78,107.055 1364.36,95.9728 1364.94,133.016 1365.52,123.074 1366.1,122.885 1366.68,133.28 1367.26,152.753 1367.84,126.028 1368.42,143.687 " />
</g>

<g fill="#ffffff" fill-opacity="1" stroke="none" transform="matrix(7.5e-05,0,0,7.5e-05,0,0)"
font-family="Times New Roman" font-size="26" font-weight="400" font-style="normal" 
>
<path vector-effect="none" fill-rule="evenodd" d="M1.393e+07,165000 L1.393e+07,2.485e+06 L1.625e+07,2.485e+06 L1.625e+07,165000 L1.393e+07,165000"/>
</g>

<g fill="#212121" fill-opacity="1" stroke="#212121" stroke-opacity="1" stroke-width="2" stroke-linecap="square" stroke-linejoin="round" transform="matrix(0.75,0,0,0.75,0,0)"
font-family="Times New Roman" font-size="26" font-weight="400" font-style="normal" 
>
<polyline fill="none" vector-effect="none" points="1393,248.5 1625,248.5 " />
<polyline fill="none" vector-effect="none" points="1393,16.5 1625,16.5 " />
<polyline fill="none" vector-effect="none" points="1393,248.5 1393,16.5 " />
<polyline fill="none" vector-effect="none" points="1625,248.5 1625,16.5 " />
</g>

<g fill="none" stroke="#ffb25a" stroke-opacity="1" stroke-width="4" stroke-linecap="butt" stroke-linejoin="round" transform="matrix(0.75,0,0,0.75,0,0)"
font-family="Times New Roman" font-size="26" font-weight="400" font-style="normal" 
>
<polyline fill="none" vector-effect="none" points="1393.58,169.383 1394.16,154.058 1394.74,121.406 1395.32,136.548 1395.9,144.637 1396.48,151.365 1397.06,211.834 1397.64,187.754 1398.22,155.455 1398.8,139.415 1399.38,99.3736 1399.96,137.392 1400.54,148.102 1401.12,181.138 1401.7,158.827 1402.28,93.7305 1402.86,105.637 1403.44,147.685 1404.02,170.471 1404.6,129.848 1405.18,59.4795 1405.76,72.76 1406.34,98.2753 1406.92,130.357 1407.5,126.797 1408.08,134.824 1408.66,197.81 1409.24,155.506 1409.82,153.71 1410.4,161.896 1410.98,153.571 1411.56,151.888 1412.14,87.3248 1412.72,94.3501 1413.3,105.488 1413.88,146.874 1414.46,147.307 1415.04,104.682 1415.62,45.1504 1416.2,100.63 1416.78,144.695 1417.36,198.372 1417.94,157.717 1418.52,140.863 1419.1,148.19 1419.68,145.296 1420.26,126.336 1420.84,83.0481 1421.42,96.7155 1422,132.931 1422.58,184.066 1423.16,176.79 1423.74,160.373 1424.32,157.527 1424.9,154.379 1425.48,91.4172 1426.06,129.569 1426.64,99.6415 1427.22,128.378 1427.8,128.689 1428.38,96.078 1428.96,138.777 1429.54,115.886 1430.12,164.554 1430.7,90.6837 1431.28,143.682 1431.86,166.339 1432.44,109.272 1433.02,157.545 1433.6,127.853 1434.18,143.358 1434.76,184.413 1435.34,93.2067 1435.92,144.525 1436.5,136.026 1437.08,136.639 1437.66,137.491 1438.24,125.489 1438.82,113.219 1439.4,164.98 1439.98,188.036 1440.56,171.473 1441.14,130.117 1441.72,128.763 1442.3,148.963 1442.88,164.075 1443.46,93.5368 1444.04,133.118 1444.62,194.947 1445.2,108.244 1445.78,142.599 1446.36,144.041 1446.94,159.229 1447.52,105.296 1448.1,124.461 1448.68,166.231 1449.26,165.595 1449.84,125.577 1450.42,120.193 1451,75.5249 1451.58,123.026 1452.16,148.42 1452.74,185.365 1453.32,222.747 1453.9,182.03 1454.48,178.167 1455.06,147.704 1455.64,130.624 1456.22,146.433 1456.8,99.0444 1457.38,96.7303 1457.96,178.622 1458.54,151.939 1459.12,146.429 1459.7,165.794 1460.28,147.223 1460.86,170.163 1461.44,58.9819 1462.02,116.324 1462.6,139.774 1463.18,124.056 1463.76,137.728 1464.34,218.972 1464.92,186.515 1465.5,162.669 1466.08,116.649 1466.66,164.272 1467.24,123.974 1467.82,111.09 1468.4,79.129 1468.98,98.374 1469.56,151.763 1470.14,127.223 1470.72,155.109 1471.3,173.078 1471.88,159.12 1472.46,212.494 1473.04,182.585 1473.62,164.037 1474.2,165.211 1474.78,119.908 1475.36,90.0358 1475.94,111.612 1476.52,112.58 1477.1,173.227 1477.68,197.816 1478.26,145.188 1478.84,73.8409 1479.42,68.8166 1480,121.54 1480.58,175.21 1481.16,120.696 1481.74,179.187 1482.32,98.5 1482.9,113.661 1483.48,89.6039 1484.06,112.028 1484.64,114.212 1485.22,126.977 1485.8,149.487 1486.38,141.818 1486.96,109.765 1487.54,116.559 1488.12,133.192 1488.7,130.459 1489.28,82.6966 1489.86,141.331 1490.44,128.578 1491.02,91.6879 1491.6,108.786 1492.18,114.318 1492.76,127.837 1493.34,113.11 1493.92,143.32 1494.5,138.664 1495.08,115.024 1495.66,85.7864 1496.24,158.27 1496.82,101.675 1497.4,68.8884 1497.98,155.426 1498.56,90.2333 1499.14,149.646 1499.72,95.4572 1500.3,123.928 1500.88,121.525 1501.46,92.3408 1502.04,104.277 1502.62,140.238 1503.2,204.326 1503.78,186.137 1504.36,208.106 1504.94,178.025 1505.52,101.43 1506.1,183.415 1506.68,105.286 1507.26,134.996 1507.84,70.3549 1508.42,92.9346 1509,120.744 1509.58,119.018 1510.16,160.825 1510.74,177.43 1511.32,122.452 1511.9,101.847 1512.48,166.878 1513.06,96.9211 1513.64,101.386 1514.22,96.9561 1514.8,126.291 1515.38,152.255 1515.96,191.645 1516.54,149.315 1517.12,130.551 1517.7,107.58 1518.28,146.413 1518.86,154.363 1519.44,110.35 1520.02,112.438 1520.6,127.729 1521.18,155.207 1521.76,115.38 1522.34,138.023 1522.92,151.978 1523.5,137.238 1524.08,152.584 1524.66,87.2208 1525.24,80.2566 1525.82,138.322 1526.4,158.769 1526.98,146.316 1527.56,138.991 1528.14,110.95 1528.72,80.0079 1529.3,158.108 1529.88,153.952 1530.46,168.944 1531.04,118.602 1531.62,153.603 1532.2,94.6797 1532.78,142.341 1533.36,117.043 1533.94,126.234 1534.52,138.61 1535.1,128.855 1535.68,172.654 1536.26,169.334 1536.84,137.106 1537.42,120.235 1538,134.185 1538.58,105.879 1539.16,159.295 1539.74,142.627 1540.32,145.275 1540.9,137.16 1541.48,152.809 1542.06,141.985 1542.64,140.265 1543.22,180.158 1543.8,119.714 1544.38,128.799 1544.96,108.856 1545.54,133 1546.12,171.444 1546.7,158.935 1547.28,75.6268 1547.86,79.1504 1548.44,127.457 1549.02,132.849 1549.6,189.866 1550.18,130.293 1550.76,93.2877 1551.34,152.39 1551.92,185.297 1552.5,169.854 1553.08,153.985 1553.66,201.337 1554.24,94.9263 1554.82,77.4955 1555.4,139.239 1555.98,111.07 1556.56,173.074 1557.14,167.001 1557.72,132.654 1558.3,166.234 1558.88,118.723 1559.46,108.198 1560.04,130.029 1560.62,137.922 1561.2,173.865 1561.78,202.026 1562.36,137.579 1562.94,127.571 1563.52,127.943 1564.1,192.236 1564.68,181.556 1565.26,92.5483 1565.84,51.2745 1566.42,130.98 1567,108.984 1567.58,100.37 1568.16,99.5571 1568.74,71.3805 1569.32,93.66 1569.9,110.247 1570.48,156.128 1571.06,124.183 1571.64,139.643 1572.22,162.37 1572.8,131.922 1573.38,149.242 1573.96,85.281 1574.54,159.316 1575.12,136.693 1575.7,159.586 1576.28,87.4086 1576.86,123.983 1577.44,101.515 1578.02,128.988 1578.6,140.752 1579.18,120.334 1579.76,118.739 1580.34,120.632 1580.92,122.193 1581.5,124.796 1582.08,91.4113 1582.66,97.6172 1583.24,103.385 1583.82,108.56 1584.4,163.821 1584.98,128.607 1585.56,132.868 1586.14,141.187 1586.72,96.3852 1587.3,140.623 1587.88,100.747 1588.46,77.7928 1589.04,68.9541 1589.62,74.5546 1590.2,71.4422 1590.78,127.015 1591.36,84.8845 1591.94,88.3313 1592.52,158.852 1593.1,228.148 1593.68,192.011 1594.26,179.462 1594.84,61.8067 1595.42,128.002 1596,109.793 1596.58,184.514 1597.16,142.736 1597.74,107.361 1598.32,103.46 1598.9,148.282 1599.48,149.217 1600.06,145.91 1600.64,125.659 1601.22,152.894 1601.8,113.154 1602.38,64.4481 1602.96,87.612 1603.54,151.659 1604.12,147.214 1604.7,73.5708 1605.28,138.63 1605.86,224.765 1606.44,163.871 1607.02,217.841 1607.6,211.466 1608.18,159.213 1608.76,120.124 1609.34,153.503 1609.92,117.449 1610.5,107.467 1611.08,101.209 1611.66,125.274 1612.24,71.979 1612.82,102.402 1613.4,147.833 1613.98,150.317 1614.56,134.988 1615.14,145.114 1615.72,141.905 1616.3,78.867 1616.88,108.48 1617.46,118.269 1618.04,85.4743 1618.62,111.717 1619.2,105.051 1619.78,96.4941 1620.36,146.136 1620.94,219.487 1621.52,170.02 1622.1,183.939 1622.68,159.062 1623.26,107.613 1623.84,195.026 1624.42,179.908 " />
</g>

<g fill="none" stroke="#2cd35f" stroke-opacity="1" stroke-width="4" stroke-linecap="butt" stroke-linejoin="round" transform="matrix(0.75,0,0,0.75,0,0)"
font-family="Times New Roman" font-size="26" font-weight="400" font-style="normal" 
>
<polyline fill="none" vector-effect="none" points="1393.58,136.124 1394.16,129.132 1394.74,156.752 1395.32,110.712 1395.9,118.343 1396.48,73.0791 1397.06,131.141 1397.64,127.774 1398.22,160.157 1398.8,156.602 1399.38,155.661 1399.96,168.457 1400.54,147.556 1401.12,191.595 1401.7,150.311 1402.28,137.137 1402.86,129.676 1403.44,147.975 1404.02,174.122 1404.6,176.186 1405.18,210.826 1405.76,165.419 1406.34,168.652 1406.92,149.486 1407.5,138.708 1408.08,146.959 1408.66,184.313 1409.24,145.709 1409.82,125.677 1410.4,143.385 1410.98,111.47 1411.56,150.091 1412.14,178.898 1412.72,138.373 1413.3,129.798 1413.88,169.894 1414.46,118.914 1415.04,74.7372 1415.62,72.972 1416.2,144.904 1416.78,108.797 1417.36,108.135 1417.94,101.976 1418.52,89.9884 1419.1,100.1 1419.68,86.5788 1420.26,98.6217 1420.84,99.5345 1421.42,57.2487 1422,60.4543 1422.58,109.97 1423.16,199.603 1423.74,188.291 1424.32,111.398 1424.9,103.109 1425.48,123.212 1426.06,145.645 1426.64,178.364 1427.22,57.2061 1427.8,100.936 1428.38,87.7851 1428.96,151.448 1429.54,124.501 1430.12,98.3941 1430.7,83.1244 1431.28,108.923 1431.86,164.766 1432.44,145.649 1433.02,195.638 1433.6,173.427 1434.18,145.79 1434.76,107.008 1435.34,94.5025 1435.92,89.7556 1436.5,157.264 1437.08,159.888 1437.66,113.484 1438.24,97.5916 1438.82,142.961 1439.4,156.245 1439.98,159.578 1440.56,194.337 1441.14,172.452 1441.72,106.182 1442.3,121.482 1442.88,142.098 1443.46,203.837 1444.04,195.844 1444.62,139.512 1445.2,136.98 1445.78,168.755 1446.36,159.358 1446.94,179.133 1447.52,196.154 1448.1,192.998 1448.68,205.703 1449.26,130.278 1449.84,86.7139 1450.42,112.188 1451,100.327 1451.58,86.1973 1452.16,108.602 1452.74,146.469 1453.32,104.875 1453.9,73.0194 1454.48,42.3462 1455.06,104.942 1455.64,232.317 1456.22,205.074 1456.8,159.448 1457.38,114.7 1457.96,80.4775 1458.54,96.2145 1459.12,94.371 1459.7,121.598 1460.28,153.095 1460.86,108.398 1461.44,158.744 1462.02,161.682 1462.6,123.681 1463.18,63.9449 1463.76,25.1276 1464.34,74.4766 1464.92,120.551 1465.5,154.217 1466.08,93.3581 1466.66,179.228 1467.24,149.686 1467.82,183.585 1468.4,177.518 1468.98,115.554 1469.56,88.9017 1470.14,101.298 1470.72,107.803 1471.3,117.272 1471.88,117.106 1472.46,148.529 1473.04,108.236 1473.62,97.1331 1474.2,104.669 1474.78,116.954 1475.36,160.489 1475.94,171.369 1476.52,166.805 1477.1,136.742 1477.68,146.306 1478.26,111.7 1478.84,151.379 1479.42,165.347 1480,212.986 1480.58,148.081 1481.16,71.6581 1481.74,107.056 1482.32,221.273 1482.9,150.253 1483.48,158.136 1484.06,154.051 1484.64,186.049 1485.22,163.803 1485.8,160.37 1486.38,118.125 1486.96,130.167 1487.54,179.948 1488.12,224.205 1488.7,182.24 1489.28,230.772 1489.86,146.558 1490.44,92.4423 1491.02,123.357 1491.6,94.4168 1492.18,45.7027 1492.76,80.7864 1493.34,152.028 1493.92,165.219 1494.5,163.285 1495.08,104.034 1495.66,142.461 1496.24,132.146 1496.82,111.033 1497.4,182.575 1497.98,138.527 1498.56,117.903 1499.14,108.249 1499.72,85.0315 1500.3,140.013 1500.88,155.344 1501.46,145.127 1502.04,111.312 1502.62,44.5742 1503.2,134.802 1503.78,93.2482 1504.36,108.992 1504.94,117.852 1505.52,202.892 1506.1,208.67 1506.68,175.373 1507.26,201.24 1507.84,110.818 1508.42,92.5809 1509,118.232 1509.58,67.7782 1510.16,76.5414 1510.74,128.564 1511.32,156.834 1511.9,147.028 1512.48,182.244 1513.06,203.167 1513.64,242.749 1514.22,152.894 1514.8,129.471 1515.38,88.0882 1515.96,110.441 1516.54,161.749 1517.12,166.448 1517.7,59.9337 1518.28,96.7128 1518.86,158.088 1519.44,126.263 1520.02,136.987 1520.6,163.771 1521.18,91.3919 1521.76,148.9 1522.34,173.725 1522.92,146.348 1523.5,138.339 1524.08,157.958 1524.66,216.623 1525.24,152.704 1525.82,159.22 1526.4,143.525 1526.98,166.483 1527.56,90.9333 1528.14,110.087 1528.72,140.552 1529.3,113.728 1529.88,164.598 1530.46,119.777 1531.04,153.232 1531.62,153.698 1532.2,163.393 1532.78,123.728 1533.36,131.99 1533.94,91.1313 1534.52,139.193 1535.1,136.818 1535.68,135.895 1536.26,106.903 1536.84,135.859 1537.42,175.854 1538,154.009 1538.58,136.672 1539.16,132.081 1539.74,142.886 1540.32,142.638 1540.9,166.844 1541.48,131.931 1542.06,130.866 1542.64,114.606 1543.22,112.967 1543.8,102.833 1544.38,170.202 1544.96,152.885 1545.54,148.644 1546.12,115.16 1546.7,141.253 1547.28,182.24 1547.86,141.346 1548.44,124.477 1549.02,102.55 1549.6,92.0729 1550.18,149.929 1550.76,98.9191 1551.34,114.629 1551.92,95.4121 1552.5,130.245 1553.08,204.205 1553.66,141.103 1554.24,215.356 1554.82,151.786 1555.4,95.9985 1555.98,155.007 1556.56,114.272 1557.14,92.6318 1557.72,125.021 1558.3,151.161 1558.88,134.834 1559.46,141.253 1560.04,179.099 1560.62,166.94 1561.2,173.128 1561.78,104.838 1562.36,167.394 1562.94,227.061 1563.52,180.941 1564.1,198.036 1564.68,164.559 1565.26,126.2 1565.84,108.01 1566.42,116.21 1567,169.824 1567.58,176.491 1568.16,154.825 1568.74,133.309 1569.32,120.755 1569.9,119.835 1570.48,103.047 1571.06,98.5717 1571.64,120.374 1572.22,110.028 1572.8,65.8602 1573.38,94.0614 1573.96,102.491 1574.54,138.119 1575.12,188.891 1575.7,150.523 1576.28,132.836 1576.86,154.833 1577.44,130.731 1578.02,130.434 1578.6,165.433 1579.18,130.267 1579.76,134.537 1580.34,116.262 1580.92,81.1365 1581.5,143.336 1582.08,78.9339 1582.66,104.584 1583.24,94.4261 1583.82,133.415 1584.4,151.65 1584.98,126.859 1585.56,116.831 1586.14,124.424 1586.72,131.413 1587.3,72.014 1587.88,108.094 1588.46,207.181 1589.04,146.46 1589.62,178.389 1590.2,94.424 1590.78,128.49 1591.36,56.7217 1591.94,18.3686 1592.52,23.7579 1593.1,114.986 1593.68,166.047 1594.26,122.753 1594.84,96.6261 1595.42,73.4743 1596,117.571 1596.58,194.035 1597.16,163.686 1597.74,167.127 1598.32,162.346 1598.9,159.003 1599.48,81.0223 1600.06,87.0337 1600.64,137.47 1601.22,151.522 1601.8,180.797 1602.38,176.919 1602.96,107.208 1603.54,135.567 1604.12,125.172 1604.7,96.0995 1605.28,80.2168 1605.86,105.745 1606.44,154.862 1607.02,120.16 1607.6,175.422 1608.18,171.986 1608.76,138.923 1609.34,162.949 1609.92,203.599 1610.5,138.399 1611.08,147.583 1611.66,105.679 1612.24,88.7465 1612.82,148.066 1613.4,136.994 1613.98,105.052 1614.56,142.215 1615.14,157.61 1615.72,197.299 1616.3,187.139 1616.88,188.469 1617.46,208.071 1618.04,185.393 1618.62,168.563 1619.2,139.944 1619.78,123.859 1620.36,142.919 1620.94,50.5423 1621.52,47.7799 1622.1,82.2363 1622.68,169.604 1623.2,248.5 " />
<polyline fill="none" vector-effect="none" points="1623.32,248.5 1623.84,157.076 1624.42,132.036 " />
</g>
</g>
</svg>
